{
	"asset":{
		"generator":"Khronos glTF Blender I/O v5.1.19",
		"version":"2.0"
	},
	"scene":0,
	"scenes":[
		{
			"name":"Scene",
			"nodes":[
				0,
				1,
				2,
				3,
				4,
				5,
				6,
				7,
				8,
				9,
				10,
				11,
				12,
				13,
				14,
				15,
				16,
				17,
				18,
				19,
				20,
				21,
				22,
				23,
				24,
				25,
				26,
				27,
				28,
				29,
				30,
				31,
				32,
				33,
				34,
				35,
				36,
				37,
				38,
				39,
				40,
				41,
				42,
				43,
				44,
				45,
				46,
				47,
				48,
				49,
				50
			]
		}
	],
	"nodes":[
		{
			"mesh":0,
			"name":"\u7acb\u65b9\u4f53.001"
		},
		{
			"mesh":1,
			"name":"\u7acb\u65b9\u4f53.002"
		},
		{
			"mesh":2,
			"name":"\u7acb\u65b9\u4f53.003"
		},
		{
			"mesh":3,
			"name":"\u7acb\u65b9\u4f53.004"
		},
		{
			"mesh":4,
			"name":"\u7acb\u65b9\u4f53.005"
		},
		{
			"mesh":5,
			"name":"\u7acb\u65b9\u4f53.006"
		},
		{
			"mesh":6,
			"name":"\u7acb\u65b9\u4f53.007"
		},
		{
			"mesh":7,
			"name":"\u7acb\u65b9\u4f53.008"
		},
		{
			"mesh":8,
			"name":"\u7acb\u65b9\u4f53.009"
		},
		{
			"mesh":9,
			"name":"\u7acb\u65b9\u4f53.010"
		},
		{
			"mesh":10,
			"name":"\u7acb\u65b9\u4f53.011"
		},
		{
			"mesh":11,
			"name":"\u7acb\u65b9\u4f53.012"
		},
		{
			"mesh":12,
			"name":"\u7acb\u65b9\u4f53.013"
		},
		{
			"mesh":13,
			"name":"\u7acb\u65b9\u4f53.014"
		},
		{
			"mesh":14,
			"name":"\u7acb\u65b9\u4f53.015"
		},
		{
			"mesh":15,
			"name":"\u7acb\u65b9\u4f53.016"
		},
		{
			"mesh":16,
			"name":"\u7acb\u65b9\u4f53.017"
		},
		{
			"mesh":17,
			"name":"\u7acb\u65b9\u4f53.018"
		},
		{
			"mesh":18,
			"name":"\u7acb\u65b9\u4f53.019"
		},
		{
			"mesh":19,
			"name":"\u7acb\u65b9\u4f53.020"
		},
		{
			"mesh":20,
			"name":"\u7acb\u65b9\u4f53.021"
		},
		{
			"mesh":21,
			"name":"\u7acb\u65b9\u4f53.022"
		},
		{
			"mesh":22,
			"name":"\u7acb\u65b9\u4f53.023"
		},
		{
			"mesh":23,
			"name":"\u7acb\u65b9\u4f53.024"
		},
		{
			"mesh":24,
			"name":"\u7acb\u65b9\u4f53.025"
		},
		{
			"mesh":25,
			"name":"\u7acb\u65b9\u4f53.026"
		},
		{
			"mesh":26,
			"name":"\u7acb\u65b9\u4f53.027"
		},
		{
			"mesh":27,
			"name":"\u7acb\u65b9\u4f53.028"
		},
		{
			"mesh":28,
			"name":"\u7acb\u65b9\u4f53.029"
		},
		{
			"mesh":29,
			"name":"\u7acb\u65b9\u4f53.030"
		},
		{
			"mesh":30,
			"name":"\u7acb\u65b9\u4f53.031"
		},
		{
			"mesh":31,
			"name":"\u7acb\u65b9\u4f53.032"
		},
		{
			"mesh":32,
			"name":"\u7acb\u65b9\u4f53.033"
		},
		{
			"mesh":33,
			"name":"\u7acb\u65b9\u4f53.034"
		},
		{
			"mesh":34,
			"name":"\u7acb\u65b9\u4f53.035"
		},
		{
			"mesh":35,
			"name":"\u7acb\u65b9\u4f53.036"
		},
		{
			"mesh":36,
			"name":"\u7acb\u65b9\u4f53.037"
		},
		{
			"mesh":37,
			"name":"\u7acb\u65b9\u4f53.038"
		},
		{
			"mesh":38,
			"name":"\u7acb\u65b9\u4f53.039"
		},
		{
			"mesh":39,
			"name":"\u7acb\u65b9\u4f53.040"
		},
		{
			"mesh":40,
			"name":"\u7acb\u65b9\u4f53.041"
		},
		{
			"mesh":41,
			"name":"\u7acb\u65b9\u4f53.042"
		},
		{
			"mesh":42,
			"name":"\u7acb\u65b9\u4f53.043"
		},
		{
			"mesh":43,
			"name":"\u7acb\u65b9\u4f53.044"
		},
		{
			"mesh":44,
			"name":"\u7acb\u65b9\u4f53.045"
		},
		{
			"mesh":45,
			"name":"\u7acb\u65b9\u4f53.046"
		},
		{
			"mesh":46,
			"name":"\u7acb\u65b9\u4f53.047"
		},
		{
			"mesh":47,
			"name":"\u7acb\u65b9\u4f53.048"
		},
		{
			"mesh":48,
			"name":"\u7acb\u65b9\u4f53.049"
		},
		{
			"mesh":49,
			"name":"\u7acb\u65b9\u4f53.050"
		},
		{
			"mesh":50,
			"name":"\u7acb\u65b9\u4f53.051"
		}
	],
	"materials":[
		{
			"doubleSided":true,
			"name":"\u30de\u30c6\u30ea\u30a2\u30eb.030",
			"normalTexture":{
				"index":0
			},
			"pbrMetallicRoughness":{
				"baseColorTexture":{
					"index":1
				},
				"metallicFactor":0
			}
		},
		{
			"doubleSided":true,
			"name":"\u30de\u30c6\u30ea\u30a2\u30eb.031",
			"normalTexture":{
				"index":2
			},
			"pbrMetallicRoughness":{
				"baseColorTexture":{
					"index":3
				},
				"metallicFactor":0
			}
		},
		{
			"doubleSided":true,
			"name":"\u30de\u30c6\u30ea\u30a2\u30eb.032",
			"normalTexture":{
				"index":4
			},
			"pbrMetallicRoughness":{
				"baseColorTexture":{
					"index":5
				},
				"metallicFactor":0
			}
		},
		{
			"doubleSided":true,
			"name":"\u30de\u30c6\u30ea\u30a2\u30eb.033",
			"normalTexture":{
				"index":6
			},
			"pbrMetallicRoughness":{
				"baseColorTexture":{
					"index":7
				},
				"metallicFactor":0
			}
		},
		{
			"doubleSided":true,
			"name":"\u30de\u30c6\u30ea\u30a2\u30eb.034",
			"normalTexture":{
				"index":8
			},
			"pbrMetallicRoughness":{
				"baseColorTexture":{
					"index":9
				},
				"metallicFactor":0
			}
		},
		{
			"doubleSided":true,
			"name":"\u30de\u30c6\u30ea\u30a2\u30eb.035",
			"normalTexture":{
				"index":10
			},
			"pbrMetallicRoughness":{
				"baseColorTexture":{
					"index":11
				},
				"metallicFactor":0
			}
		},
		{
			"doubleSided":true,
			"name":"\u30de\u30c6\u30ea\u30a2\u30eb.036",
			"normalTexture":{
				"index":12
			},
			"pbrMetallicRoughness":{
				"baseColorTexture":{
					"index":13
				},
				"metallicFactor":0
			}
		},
		{
			"doubleSided":true,
			"name":"\u30de\u30c6\u30ea\u30a2\u30eb.037",
			"normalTexture":{
				"index":14
			},
			"pbrMetallicRoughness":{
				"baseColorTexture":{
					"index":15
				},
				"metallicFactor":0
			}
		},
		{
			"doubleSided":true,
			"name":"\u30de\u30c6\u30ea\u30a2\u30eb.038",
			"normalTexture":{
				"index":16
			},
			"pbrMetallicRoughness":{
				"baseColorTexture":{
					"index":17
				},
				"metallicFactor":0
			}
		},
		{
			"doubleSided":true,
			"name":"\u30de\u30c6\u30ea\u30a2\u30eb.039",
			"normalTexture":{
				"index":18
			},
			"pbrMetallicRoughness":{
				"baseColorTexture":{
					"index":19
				},
				"metallicFactor":0
			}
		},
		{
			"doubleSided":true,
			"name":"\u30de\u30c6\u30ea\u30a2\u30eb.040",
			"normalTexture":{
				"index":20
			},
			"pbrMetallicRoughness":{
				"baseColorTexture":{
					"index":21
				},
				"metallicFactor":0
			}
		},
		{
			"doubleSided":true,
			"name":"\u30de\u30c6\u30ea\u30a2\u30eb.041",
			"normalTexture":{
				"index":22
			},
			"pbrMetallicRoughness":{
				"baseColorTexture":{
					"index":23
				},
				"metallicFactor":0
			}
		},
		{
			"doubleSided":true,
			"name":"\u30de\u30c6\u30ea\u30a2\u30eb.043",
			"normalTexture":{
				"index":24
			},
			"pbrMetallicRoughness":{
				"baseColorTexture":{
					"index":25
				},
				"metallicFactor":0
			}
		},
		{
			"doubleSided":true,
			"name":"\u30de\u30c6\u30ea\u30a2\u30eb.044",
			"normalTexture":{
				"index":26
			},
			"pbrMetallicRoughness":{
				"baseColorTexture":{
					"index":27
				},
				"metallicFactor":0
			}
		},
		{
			"doubleSided":true,
			"name":"\u30de\u30c6\u30ea\u30a2\u30eb.045",
			"normalTexture":{
				"index":28
			},
			"pbrMetallicRoughness":{
				"baseColorTexture":{
					"index":29
				},
				"metallicFactor":0
			}
		},
		{
			"doubleSided":true,
			"name":"\u30de\u30c6\u30ea\u30a2\u30eb.046",
			"normalTexture":{
				"index":30
			},
			"pbrMetallicRoughness":{
				"baseColorTexture":{
					"index":31
				},
				"metallicFactor":0
			}
		},
		{
			"doubleSided":true,
			"name":"\u30de\u30c6\u30ea\u30a2\u30eb.047",
			"normalTexture":{
				"index":32
			},
			"pbrMetallicRoughness":{
				"baseColorTexture":{
					"index":33
				},
				"metallicFactor":0
			}
		},
		{
			"doubleSided":true,
			"name":"\u30de\u30c6\u30ea\u30a2\u30eb.048",
			"normalTexture":{
				"index":34
			},
			"pbrMetallicRoughness":{
				"baseColorTexture":{
					"index":35
				},
				"metallicFactor":0
			}
		},
		{
			"doubleSided":true,
			"name":"\u30de\u30c6\u30ea\u30a2\u30eb.049",
			"normalTexture":{
				"index":36
			},
			"pbrMetallicRoughness":{
				"baseColorTexture":{
					"index":37
				},
				"metallicFactor":0
			}
		},
		{
			"doubleSided":true,
			"name":"\u30de\u30c6\u30ea\u30a2\u30eb.050",
			"normalTexture":{
				"index":38
			},
			"pbrMetallicRoughness":{
				"baseColorTexture":{
					"index":39
				},
				"metallicFactor":0
			}
		},
		{
			"doubleSided":true,
			"name":"\u30de\u30c6\u30ea\u30a2\u30eb.051",
			"normalTexture":{
				"index":40
			},
			"pbrMetallicRoughness":{
				"baseColorTexture":{
					"index":41
				},
				"metallicFactor":0
			}
		},
		{
			"doubleSided":true,
			"name":"\u30de\u30c6\u30ea\u30a2\u30eb.052",
			"normalTexture":{
				"index":42
			},
			"pbrMetallicRoughness":{
				"baseColorTexture":{
					"index":43
				},
				"metallicFactor":0
			}
		},
		{
			"doubleSided":true,
			"name":"\u30de\u30c6\u30ea\u30a2\u30eb.053",
			"normalTexture":{
				"index":44
			},
			"pbrMetallicRoughness":{
				"baseColorTexture":{
					"index":45
				},
				"metallicFactor":0
			}
		},
		{
			"doubleSided":true,
			"name":"\u30de\u30c6\u30ea\u30a2\u30eb.054",
			"normalTexture":{
				"index":46
			},
			"pbrMetallicRoughness":{
				"baseColorTexture":{
					"index":47
				},
				"metallicFactor":0
			}
		},
		{
			"doubleSided":true,
			"name":"\u30de\u30c6\u30ea\u30a2\u30eb.055",
			"normalTexture":{
				"index":48
			},
			"pbrMetallicRoughness":{
				"baseColorTexture":{
					"index":49
				},
				"metallicFactor":0
			}
		},
		{
			"doubleSided":true,
			"name":"\u30de\u30c6\u30ea\u30a2\u30eb.056",
			"normalTexture":{
				"index":50
			},
			"pbrMetallicRoughness":{
				"baseColorTexture":{
					"index":51
				},
				"metallicFactor":0
			}
		},
		{
			"doubleSided":true,
			"name":"\u30de\u30c6\u30ea\u30a2\u30eb.057",
			"normalTexture":{
				"index":52
			},
			"pbrMetallicRoughness":{
				"baseColorTexture":{
					"index":53
				},
				"metallicFactor":0
			}
		},
		{
			"doubleSided":true,
			"name":"\u30de\u30c6\u30ea\u30a2\u30eb.058",
			"normalTexture":{
				"index":54
			},
			"pbrMetallicRoughness":{
				"baseColorTexture":{
					"index":55
				},
				"metallicFactor":0
			}
		},
		{
			"doubleSided":true,
			"name":"\u30de\u30c6\u30ea\u30a2\u30eb.059",
			"normalTexture":{
				"index":56
			},
			"pbrMetallicRoughness":{
				"baseColorTexture":{
					"index":57
				},
				"metallicFactor":0
			}
		},
		{
			"doubleSided":true,
			"name":"\u30de\u30c6\u30ea\u30a2\u30eb.060",
			"normalTexture":{
				"index":58
			},
			"pbrMetallicRoughness":{
				"baseColorTexture":{
					"index":59
				},
				"metallicFactor":0
			}
		},
		{
			"doubleSided":true,
			"name":"\u30de\u30c6\u30ea\u30a2\u30eb.061",
			"normalTexture":{
				"index":60
			},
			"pbrMetallicRoughness":{
				"baseColorTexture":{
					"index":61
				},
				"metallicFactor":0
			}
		},
		{
			"doubleSided":true,
			"name":"\u30de\u30c6\u30ea\u30a2\u30eb.062",
			"normalTexture":{
				"index":62
			},
			"pbrMetallicRoughness":{
				"baseColorTexture":{
					"index":63
				},
				"metallicFactor":0
			}
		},
		{
			"doubleSided":true,
			"name":"\u30de\u30c6\u30ea\u30a2\u30eb.063",
			"normalTexture":{
				"index":64
			},
			"pbrMetallicRoughness":{
				"baseColorTexture":{
					"index":65
				},
				"metallicFactor":0
			}
		},
		{
			"doubleSided":true,
			"name":"\u30de\u30c6\u30ea\u30a2\u30eb.064",
			"normalTexture":{
				"index":66
			},
			"pbrMetallicRoughness":{
				"baseColorTexture":{
					"index":67
				},
				"metallicFactor":0
			}
		},
		{
			"doubleSided":true,
			"name":"\u30de\u30c6\u30ea\u30a2\u30eb.065",
			"normalTexture":{
				"index":68
			},
			"pbrMetallicRoughness":{
				"baseColorTexture":{
					"index":69
				},
				"metallicFactor":0
			}
		},
		{
			"doubleSided":true,
			"name":"\u30de\u30c6\u30ea\u30a2\u30eb.066",
			"normalTexture":{
				"index":70
			},
			"pbrMetallicRoughness":{
				"baseColorTexture":{
					"index":71
				},
				"metallicFactor":0
			}
		},
		{
			"doubleSided":true,
			"name":"\u30de\u30c6\u30ea\u30a2\u30eb.067",
			"normalTexture":{
				"index":72
			},
			"pbrMetallicRoughness":{
				"baseColorTexture":{
					"index":73
				},
				"metallicFactor":0
			}
		},
		{
			"doubleSided":true,
			"name":"\u30de\u30c6\u30ea\u30a2\u30eb.068",
			"normalTexture":{
				"index":74
			},
			"pbrMetallicRoughness":{
				"baseColorTexture":{
					"index":75
				},
				"metallicFactor":0
			}
		},
		{
			"doubleSided":true,
			"name":"\u30de\u30c6\u30ea\u30a2\u30eb.069",
			"normalTexture":{
				"index":76
			},
			"pbrMetallicRoughness":{
				"baseColorTexture":{
					"index":77
				},
				"metallicFactor":0
			}
		},
		{
			"doubleSided":true,
			"name":"\u30de\u30c6\u30ea\u30a2\u30eb.070",
			"normalTexture":{
				"index":78
			},
			"pbrMetallicRoughness":{
				"baseColorTexture":{
					"index":79
				},
				"metallicFactor":0
			}
		},
		{
			"doubleSided":true,
			"name":"\u30de\u30c6\u30ea\u30a2\u30eb.071",
			"normalTexture":{
				"index":80
			},
			"pbrMetallicRoughness":{
				"baseColorTexture":{
					"index":81
				},
				"metallicFactor":0
			}
		},
		{
			"doubleSided":true,
			"name":"\u30de\u30c6\u30ea\u30a2\u30eb.072",
			"normalTexture":{
				"index":82
			},
			"pbrMetallicRoughness":{
				"baseColorTexture":{
					"index":83
				},
				"metallicFactor":0
			}
		},
		{
			"doubleSided":true,
			"name":"\u30de\u30c6\u30ea\u30a2\u30eb.073",
			"normalTexture":{
				"index":84
			},
			"pbrMetallicRoughness":{
				"baseColorTexture":{
					"index":85
				},
				"metallicFactor":0
			}
		},
		{
			"doubleSided":true,
			"name":"\u30de\u30c6\u30ea\u30a2\u30eb.074",
			"normalTexture":{
				"index":86
			},
			"pbrMetallicRoughness":{
				"baseColorTexture":{
					"index":87
				},
				"metallicFactor":0
			}
		},
		{
			"doubleSided":true,
			"name":"\u30de\u30c6\u30ea\u30a2\u30eb.075",
			"normalTexture":{
				"index":88
			},
			"pbrMetallicRoughness":{
				"baseColorTexture":{
					"index":89
				},
				"metallicFactor":0
			}
		},
		{
			"doubleSided":true,
			"name":"\u30de\u30c6\u30ea\u30a2\u30eb.076",
			"normalTexture":{
				"index":90
			},
			"pbrMetallicRoughness":{
				"baseColorTexture":{
					"index":91
				},
				"metallicFactor":0
			}
		},
		{
			"doubleSided":true,
			"name":"\u30de\u30c6\u30ea\u30a2\u30eb.077",
			"normalTexture":{
				"index":92
			},
			"pbrMetallicRoughness":{
				"baseColorTexture":{
					"index":93
				},
				"metallicFactor":0
			}
		},
		{
			"doubleSided":true,
			"name":"\u30de\u30c6\u30ea\u30a2\u30eb.078",
			"normalTexture":{
				"index":94
			},
			"pbrMetallicRoughness":{
				"baseColorTexture":{
					"index":95
				},
				"metallicFactor":0
			}
		},
		{
			"doubleSided":true,
			"name":"\u30de\u30c6\u30ea\u30a2\u30eb.079",
			"normalTexture":{
				"index":96
			},
			"pbrMetallicRoughness":{
				"baseColorTexture":{
					"index":97
				},
				"metallicFactor":0
			}
		},
		{
			"doubleSided":true,
			"name":"\u30de\u30c6\u30ea\u30a2\u30eb.080",
			"normalTexture":{
				"index":98
			},
			"pbrMetallicRoughness":{
				"baseColorTexture":{
					"index":99
				},
				"metallicFactor":0
			}
		},
		{
			"doubleSided":true,
			"name":"\u30de\u30c6\u30ea\u30a2\u30eb.081",
			"normalTexture":{
				"index":100
			},
			"pbrMetallicRoughness":{
				"baseColorTexture":{
					"index":101
				},
				"metallicFactor":0
			}
		}
	],
	"meshes":[
		{
			"name":"\u7acb\u65b9\u4f53.009",
			"primitives":[
				{
					"attributes":{
						"POSITION":0,
						"NORMAL":1,
						"TEXCOORD_0":2
					},
					"indices":3,
					"material":0
				}
			]
		},
		{
			"name":"\u7acb\u65b9\u4f53.031",
			"primitives":[
				{
					"attributes":{
						"POSITION":4,
						"NORMAL":5,
						"TEXCOORD_0":6
					},
					"indices":3,
					"material":1
				}
			]
		},
		{
			"name":"\u7acb\u65b9\u4f53.032",
			"primitives":[
				{
					"attributes":{
						"POSITION":7,
						"NORMAL":8,
						"TEXCOORD_0":9
					},
					"indices":3,
					"material":2
				}
			]
		},
		{
			"name":"\u7acb\u65b9\u4f53.033",
			"primitives":[
				{
					"attributes":{
						"POSITION":10,
						"NORMAL":11,
						"TEXCOORD_0":12
					},
					"indices":3,
					"material":3
				}
			]
		},
		{
			"name":"\u7acb\u65b9\u4f53.034",
			"primitives":[
				{
					"attributes":{
						"POSITION":13,
						"NORMAL":14,
						"TEXCOORD_0":15
					},
					"indices":3,
					"material":4
				}
			]
		},
		{
			"name":"\u7acb\u65b9\u4f53.035",
			"primitives":[
				{
					"attributes":{
						"POSITION":16,
						"NORMAL":17,
						"TEXCOORD_0":18
					},
					"indices":3,
					"material":5
				}
			]
		},
		{
			"name":"\u7acb\u65b9\u4f53.036",
			"primitives":[
				{
					"attributes":{
						"POSITION":19,
						"NORMAL":20,
						"TEXCOORD_0":21
					},
					"indices":3,
					"material":6
				}
			]
		},
		{
			"name":"\u7acb\u65b9\u4f53.037",
			"primitives":[
				{
					"attributes":{
						"POSITION":22,
						"NORMAL":23,
						"TEXCOORD_0":24
					},
					"indices":3,
					"material":7
				}
			]
		},
		{
			"name":"\u7acb\u65b9\u4f53.038",
			"primitives":[
				{
					"attributes":{
						"POSITION":25,
						"NORMAL":26,
						"TEXCOORD_0":27
					},
					"indices":3,
					"material":8
				}
			]
		},
		{
			"name":"\u7acb\u65b9\u4f53.039",
			"primitives":[
				{
					"attributes":{
						"POSITION":28,
						"NORMAL":29,
						"TEXCOORD_0":30
					},
					"indices":3,
					"material":9
				}
			]
		},
		{
			"name":"\u7acb\u65b9\u4f53.040",
			"primitives":[
				{
					"attributes":{
						"POSITION":31,
						"NORMAL":32,
						"TEXCOORD_0":33
					},
					"indices":3,
					"material":10
				}
			]
		},
		{
			"name":"\u7acb\u65b9\u4f53.041",
			"primitives":[
				{
					"attributes":{
						"POSITION":34,
						"NORMAL":35,
						"TEXCOORD_0":36
					},
					"indices":3,
					"material":11
				}
			]
		},
		{
			"name":"\u7acb\u65b9\u4f53.043",
			"primitives":[
				{
					"attributes":{
						"POSITION":37,
						"NORMAL":38,
						"TEXCOORD_0":39
					},
					"indices":3,
					"material":12
				}
			]
		},
		{
			"name":"\u7acb\u65b9\u4f53.044",
			"primitives":[
				{
					"attributes":{
						"POSITION":40,
						"NORMAL":41,
						"TEXCOORD_0":42
					},
					"indices":3,
					"material":13
				}
			]
		},
		{
			"name":"\u7acb\u65b9\u4f53.045",
			"primitives":[
				{
					"attributes":{
						"POSITION":43,
						"NORMAL":44,
						"TEXCOORD_0":45
					},
					"indices":3,
					"material":14
				}
			]
		},
		{
			"name":"\u7acb\u65b9\u4f53.046",
			"primitives":[
				{
					"attributes":{
						"POSITION":46,
						"NORMAL":47,
						"TEXCOORD_0":48
					},
					"indices":3,
					"material":15
				}
			]
		},
		{
			"name":"\u7acb\u65b9\u4f53.047",
			"primitives":[
				{
					"attributes":{
						"POSITION":49,
						"NORMAL":50,
						"TEXCOORD_0":51
					},
					"indices":3,
					"material":16
				}
			]
		},
		{
			"name":"\u7acb\u65b9\u4f53.048",
			"primitives":[
				{
					"attributes":{
						"POSITION":52,
						"NORMAL":53,
						"TEXCOORD_0":54
					},
					"indices":3,
					"material":17
				}
			]
		},
		{
			"name":"\u7acb\u65b9\u4f53.049",
			"primitives":[
				{
					"attributes":{
						"POSITION":55,
						"NORMAL":56,
						"TEXCOORD_0":57
					},
					"indices":3,
					"material":18
				}
			]
		},
		{
			"name":"\u7acb\u65b9\u4f53.050",
			"primitives":[
				{
					"attributes":{
						"POSITION":58,
						"NORMAL":59,
						"TEXCOORD_0":60
					},
					"indices":3,
					"material":19
				}
			]
		},
		{
			"name":"\u7acb\u65b9\u4f53.051",
			"primitives":[
				{
					"attributes":{
						"POSITION":61,
						"NORMAL":62,
						"TEXCOORD_0":63
					},
					"indices":3,
					"material":20
				}
			]
		},
		{
			"name":"\u7acb\u65b9\u4f53.052",
			"primitives":[
				{
					"attributes":{
						"POSITION":64,
						"NORMAL":65,
						"TEXCOORD_0":66
					},
					"indices":3,
					"material":21
				}
			]
		},
		{
			"name":"\u7acb\u65b9\u4f53.053",
			"primitives":[
				{
					"attributes":{
						"POSITION":67,
						"NORMAL":68,
						"TEXCOORD_0":69
					},
					"indices":3,
					"material":22
				}
			]
		},
		{
			"name":"\u7acb\u65b9\u4f53.054",
			"primitives":[
				{
					"attributes":{
						"POSITION":70,
						"NORMAL":71,
						"TEXCOORD_0":72
					},
					"indices":3,
					"material":23
				}
			]
		},
		{
			"name":"\u7acb\u65b9\u4f53.055",
			"primitives":[
				{
					"attributes":{
						"POSITION":73,
						"NORMAL":74,
						"TEXCOORD_0":75
					},
					"indices":3,
					"material":24
				}
			]
		},
		{
			"name":"\u7acb\u65b9\u4f53.056",
			"primitives":[
				{
					"attributes":{
						"POSITION":76,
						"NORMAL":77,
						"TEXCOORD_0":78
					},
					"indices":3,
					"material":25
				}
			]
		},
		{
			"name":"\u7acb\u65b9\u4f53.057",
			"primitives":[
				{
					"attributes":{
						"POSITION":79,
						"NORMAL":80,
						"TEXCOORD_0":81
					},
					"indices":3,
					"material":26
				}
			]
		},
		{
			"name":"\u7acb\u65b9\u4f53.058",
			"primitives":[
				{
					"attributes":{
						"POSITION":82,
						"NORMAL":83,
						"TEXCOORD_0":84
					},
					"indices":3,
					"material":27
				}
			]
		},
		{
			"name":"\u7acb\u65b9\u4f53.059",
			"primitives":[
				{
					"attributes":{
						"POSITION":85,
						"NORMAL":86,
						"TEXCOORD_0":87
					},
					"indices":3,
					"material":28
				}
			]
		},
		{
			"name":"\u7acb\u65b9\u4f53.060",
			"primitives":[
				{
					"attributes":{
						"POSITION":88,
						"NORMAL":89,
						"TEXCOORD_0":90
					},
					"indices":3,
					"material":29
				}
			]
		},
		{
			"name":"\u7acb\u65b9\u4f53.061",
			"primitives":[
				{
					"attributes":{
						"POSITION":91,
						"NORMAL":92,
						"TEXCOORD_0":93
					},
					"indices":3,
					"material":30
				}
			]
		},
		{
			"name":"\u7acb\u65b9\u4f53.062",
			"primitives":[
				{
					"attributes":{
						"POSITION":94,
						"NORMAL":95,
						"TEXCOORD_0":96
					},
					"indices":3,
					"material":31
				}
			]
		},
		{
			"name":"\u7acb\u65b9\u4f53.063",
			"primitives":[
				{
					"attributes":{
						"POSITION":97,
						"NORMAL":98,
						"TEXCOORD_0":99
					},
					"indices":3,
					"material":32
				}
			]
		},
		{
			"name":"\u7acb\u65b9\u4f53.064",
			"primitives":[
				{
					"attributes":{
						"POSITION":100,
						"NORMAL":101,
						"TEXCOORD_0":102
					},
					"indices":3,
					"material":33
				}
			]
		},
		{
			"name":"\u7acb\u65b9\u4f53.065",
			"primitives":[
				{
					"attributes":{
						"POSITION":103,
						"NORMAL":104,
						"TEXCOORD_0":105
					},
					"indices":3,
					"material":34
				}
			]
		},
		{
			"name":"\u7acb\u65b9\u4f53.066",
			"primitives":[
				{
					"attributes":{
						"POSITION":106,
						"NORMAL":107,
						"TEXCOORD_0":108
					},
					"indices":3,
					"material":35
				}
			]
		},
		{
			"name":"\u7acb\u65b9\u4f53.067",
			"primitives":[
				{
					"attributes":{
						"POSITION":109,
						"NORMAL":110,
						"TEXCOORD_0":111
					},
					"indices":3,
					"material":36
				}
			]
		},
		{
			"name":"\u7acb\u65b9\u4f53.068",
			"primitives":[
				{
					"attributes":{
						"POSITION":112,
						"NORMAL":113,
						"TEXCOORD_0":114
					},
					"indices":3,
					"material":37
				}
			]
		},
		{
			"name":"\u7acb\u65b9\u4f53.069",
			"primitives":[
				{
					"attributes":{
						"POSITION":115,
						"NORMAL":116,
						"TEXCOORD_0":117
					},
					"indices":3,
					"material":38
				}
			]
		},
		{
			"name":"\u7acb\u65b9\u4f53.070",
			"primitives":[
				{
					"attributes":{
						"POSITION":118,
						"NORMAL":119,
						"TEXCOORD_0":120
					},
					"indices":3,
					"material":39
				}
			]
		},
		{
			"name":"\u7acb\u65b9\u4f53.071",
			"primitives":[
				{
					"attributes":{
						"POSITION":121,
						"NORMAL":122,
						"TEXCOORD_0":123
					},
					"indices":3,
					"material":40
				}
			]
		},
		{
			"name":"\u7acb\u65b9\u4f53.072",
			"primitives":[
				{
					"attributes":{
						"POSITION":124,
						"NORMAL":125,
						"TEXCOORD_0":126
					},
					"indices":3,
					"material":41
				}
			]
		},
		{
			"name":"\u7acb\u65b9\u4f53.073",
			"primitives":[
				{
					"attributes":{
						"POSITION":127,
						"NORMAL":128,
						"TEXCOORD_0":129
					},
					"indices":3,
					"material":42
				}
			]
		},
		{
			"name":"\u7acb\u65b9\u4f53.074",
			"primitives":[
				{
					"attributes":{
						"POSITION":130,
						"NORMAL":131,
						"TEXCOORD_0":132
					},
					"indices":3,
					"material":43
				}
			]
		},
		{
			"name":"\u7acb\u65b9\u4f53.075",
			"primitives":[
				{
					"attributes":{
						"POSITION":133,
						"NORMAL":134,
						"TEXCOORD_0":135
					},
					"indices":3,
					"material":44
				}
			]
		},
		{
			"name":"\u7acb\u65b9\u4f53.076",
			"primitives":[
				{
					"attributes":{
						"POSITION":136,
						"NORMAL":137,
						"TEXCOORD_0":138
					},
					"indices":3,
					"material":45
				}
			]
		},
		{
			"name":"\u7acb\u65b9\u4f53.077",
			"primitives":[
				{
					"attributes":{
						"POSITION":139,
						"NORMAL":140,
						"TEXCOORD_0":141
					},
					"indices":3,
					"material":46
				}
			]
		},
		{
			"name":"\u7acb\u65b9\u4f53.078",
			"primitives":[
				{
					"attributes":{
						"POSITION":142,
						"NORMAL":143,
						"TEXCOORD_0":144
					},
					"indices":3,
					"material":47
				}
			]
		},
		{
			"name":"\u7acb\u65b9\u4f53.079",
			"primitives":[
				{
					"attributes":{
						"POSITION":145,
						"NORMAL":146,
						"TEXCOORD_0":147
					},
					"indices":3,
					"material":48
				}
			]
		},
		{
			"name":"\u7acb\u65b9\u4f53.080",
			"primitives":[
				{
					"attributes":{
						"POSITION":148,
						"NORMAL":149,
						"TEXCOORD_0":150
					},
					"indices":3,
					"material":49
				}
			]
		},
		{
			"name":"\u7acb\u65b9\u4f53.081",
			"primitives":[
				{
					"attributes":{
						"POSITION":151,
						"NORMAL":152,
						"TEXCOORD_0":153
					},
					"indices":3,
					"material":50
				}
			]
		}
	],
	"textures":[
		{
			"sampler":0,
			"source":0
		},
		{
			"sampler":0,
			"source":1
		},
		{
			"sampler":0,
			"source":0
		},
		{
			"sampler":0,
			"source":1
		},
		{
			"sampler":0,
			"source":0
		},
		{
			"sampler":0,
			"source":1
		},
		{
			"sampler":0,
			"source":0
		},
		{
			"sampler":0,
			"source":1
		},
		{
			"sampler":0,
			"source":0
		},
		{
			"sampler":0,
			"source":1
		},
		{
			"sampler":0,
			"source":0
		},
		{
			"sampler":0,
			"source":1
		},
		{
			"sampler":0,
			"source":0
		},
		{
			"sampler":0,
			"source":1
		},
		{
			"sampler":0,
			"source":0
		},
		{
			"sampler":0,
			"source":1
		},
		{
			"sampler":0,
			"source":0
		},
		{
			"sampler":0,
			"source":1
		},
		{
			"sampler":0,
			"source":0
		},
		{
			"sampler":0,
			"source":1
		},
		{
			"sampler":0,
			"source":0
		},
		{
			"sampler":0,
			"source":1
		},
		{
			"sampler":0,
			"source":0
		},
		{
			"sampler":0,
			"source":1
		},
		{
			"sampler":0,
			"source":0
		},
		{
			"sampler":0,
			"source":1
		},
		{
			"sampler":0,
			"source":0
		},
		{
			"sampler":0,
			"source":1
		},
		{
			"sampler":0,
			"source":0
		},
		{
			"sampler":0,
			"source":1
		},
		{
			"sampler":0,
			"source":0
		},
		{
			"sampler":0,
			"source":1
		},
		{
			"sampler":0,
			"source":0
		},
		{
			"sampler":0,
			"source":1
		},
		{
			"sampler":0,
			"source":0
		},
		{
			"sampler":0,
			"source":1
		},
		{
			"sampler":0,
			"source":0
		},
		{
			"sampler":0,
			"source":1
		},
		{
			"sampler":0,
			"source":0
		},
		{
			"sampler":0,
			"source":1
		},
		{
			"sampler":0,
			"source":0
		},
		{
			"sampler":0,
			"source":1
		},
		{
			"sampler":0,
			"source":0
		},
		{
			"sampler":0,
			"source":1
		},
		{
			"sampler":0,
			"source":0
		},
		{
			"sampler":0,
			"source":1
		},
		{
			"sampler":0,
			"source":0
		},
		{
			"sampler":0,
			"source":1
		},
		{
			"sampler":0,
			"source":0
		},
		{
			"sampler":0,
			"source":1
		},
		{
			"sampler":0,
			"source":0
		},
		{
			"sampler":0,
			"source":1
		},
		{
			"sampler":0,
			"source":0
		},
		{
			"sampler":0,
			"source":1
		},
		{
			"sampler":0,
			"source":0
		},
		{
			"sampler":0,
			"source":1
		},
		{
			"sampler":0,
			"source":0
		},
		{
			"sampler":0,
			"source":1
		},
		{
			"sampler":0,
			"source":0
		},
		{
			"sampler":0,
			"source":1
		},
		{
			"sampler":0,
			"source":0
		},
		{
			"sampler":0,
			"source":1
		},
		{
			"sampler":0,
			"source":0
		},
		{
			"sampler":0,
			"source":1
		},
		{
			"sampler":0,
			"source":0
		},
		{
			"sampler":0,
			"source":1
		},
		{
			"sampler":0,
			"source":0
		},
		{
			"sampler":0,
			"source":1
		},
		{
			"sampler":0,
			"source":0
		},
		{
			"sampler":0,
			"source":1
		},
		{
			"sampler":0,
			"source":0
		},
		{
			"sampler":0,
			"source":1
		},
		{
			"sampler":0,
			"source":0
		},
		{
			"sampler":0,
			"source":1
		},
		{
			"sampler":0,
			"source":0
		},
		{
			"sampler":0,
			"source":1
		},
		{
			"sampler":0,
			"source":0
		},
		{
			"sampler":0,
			"source":1
		},
		{
			"sampler":0,
			"source":0
		},
		{
			"sampler":0,
			"source":1
		},
		{
			"sampler":0,
			"source":0
		},
		{
			"sampler":0,
			"source":1
		},
		{
			"sampler":0,
			"source":0
		},
		{
			"sampler":0,
			"source":1
		},
		{
			"sampler":0,
			"source":0
		},
		{
			"sampler":0,
			"source":1
		},
		{
			"sampler":0,
			"source":0
		},
		{
			"sampler":0,
			"source":1
		},
		{
			"sampler":0,
			"source":0
		},
		{
			"sampler":0,
			"source":1
		},
		{
			"sampler":0,
			"source":0
		},
		{
			"sampler":0,
			"source":1
		},
		{
			"sampler":0,
			"source":0
		},
		{
			"sampler":0,
			"source":1
		},
		{
			"sampler":0,
			"source":0
		},
		{
			"sampler":0,
			"source":1
		},
		{
			"sampler":0,
			"source":0
		},
		{
			"sampler":0,
			"source":1
		},
		{
			"sampler":0,
			"source":0
		},
		{
			"sampler":0,
			"source":1
		},
		{
			"sampler":0,
			"source":0
		},
		{
			"sampler":0,
			"source":1
		}
	],
	"images":[
		{
			"mimeType":"image/png",
			"name":"NormalMap.png",
			"uri":"NormalMap.png.png"
		},
		{
			"mimeType":"image/png",
			"name":"stone_2_c",
			"uri":"stone_2_c.png"
		}
	],
	"accessors":[
		{
			"bufferView":0,
			"componentType":5126,
			"count":24,
			"max":[
				4.7977399826049805,
				-0.05555534362792969,
				14.911749839782715
			],
			"min":[
				-5.26737117767334,
				-4.160503387451172,
				4.846638202667236
			],
			"type":"VEC3"
		},
		{
			"bufferView":1,
			"componentType":5126,
			"count":24,
			"type":"VEC3"
		},
		{
			"bufferView":2,
			"componentType":5126,
			"count":24,
			"type":"VEC2"
		},
		{
			"bufferView":3,
			"componentType":5123,
			"count":36,
			"type":"SCALAR"
		},
		{
			"bufferView":4,
			"componentType":5126,
			"count":24,
			"max":[
				4.796250820159912,
				-0.25555533170700073,
				14.71175479888916
			],
			"min":[
				-5.268860340118408,
				-4.360503196716309,
				4.646644115447998
			],
			"type":"VEC3"
		},
		{
			"bufferView":5,
			"componentType":5126,
			"count":24,
			"type":"VEC3"
		},
		{
			"bufferView":6,
			"componentType":5126,
			"count":24,
			"type":"VEC2"
		},
		{
			"bufferView":7,
			"componentType":5126,
			"count":24,
			"max":[
				4.794761657714844,
				-0.45555534958839417,
				14.511760711669922
			],
			"min":[
				-5.270349979400635,
				-4.5605034828186035,
				4.446649074554443
			],
			"type":"VEC3"
		},
		{
			"bufferView":8,
			"componentType":5126,
			"count":24,
			"type":"VEC3"
		},
		{
			"bufferView":9,
			"componentType":5126,
			"count":24,
			"type":"VEC2"
		},
		{
			"bufferView":10,
			"componentType":5126,
			"count":24,
			"max":[
				4.793272018432617,
				-0.6555553674697876,
				14.311765670776367
			],
			"min":[
				-5.271839141845703,
				-4.76050329208374,
				4.246654987335205
			],
			"type":"VEC3"
		},
		{
			"bufferView":11,
			"componentType":5126,
			"count":24,
			"type":"VEC3"
		},
		{
			"bufferView":12,
			"componentType":5126,
			"count":24,
			"type":"VEC2"
		},
		{
			"bufferView":13,
			"componentType":5126,
			"count":24,
			"max":[
				4.791782855987549,
				-0.8555553555488586,
				14.111771583557129
			],
			"min":[
				-5.2733283042907715,
				-4.960503578186035,
				4.046660423278809
			],
			"type":"VEC3"
		},
		{
			"bufferView":14,
			"componentType":5126,
			"count":24,
			"type":"VEC3"
		},
		{
			"bufferView":15,
			"componentType":5126,
			"count":24,
			"type":"VEC2"
		},
		{
			"bufferView":16,
			"componentType":5126,
			"count":24,
			"max":[
				4.7902936935424805,
				-1.0555553436279297,
				13.91177749633789
			],
			"min":[
				-5.27481746673584,
				-5.160503387451172,
				3.846665620803833
			],
			"type":"VEC3"
		},
		{
			"bufferView":17,
			"componentType":5126,
			"count":24,
			"type":"VEC3"
		},
		{
			"bufferView":18,
			"componentType":5126,
			"count":24,
			"type":"VEC2"
		},
		{
			"bufferView":19,
			"componentType":5126,
			"count":24,
			"max":[
				4.788804531097412,
				-1.2555553913116455,
				13.711782455444336
			],
			"min":[
				-5.276307106018066,
				-5.360503196716309,
				3.6466712951660156
			],
			"type":"VEC3"
		},
		{
			"bufferView":20,
			"componentType":5126,
			"count":24,
			"type":"VEC3"
		},
		{
			"bufferView":21,
			"componentType":5126,
			"count":24,
			"type":"VEC2"
		},
		{
			"bufferView":22,
			"componentType":5126,
			"count":24,
			"max":[
				4.7873148918151855,
				-1.4555553197860718,
				13.511788368225098
			],
			"min":[
				-5.277796268463135,
				-5.5605034828186035,
				3.446676731109619
			],
			"type":"VEC3"
		},
		{
			"bufferView":23,
			"componentType":5126,
			"count":24,
			"type":"VEC3"
		},
		{
			"bufferView":24,
			"componentType":5126,
			"count":24,
			"type":"VEC2"
		},
		{
			"bufferView":25,
			"componentType":5126,
			"count":24,
			"max":[
				4.785825729370117,
				-1.6555553674697876,
				13.311793327331543
			],
			"min":[
				-5.279285430908203,
				-5.76050329208374,
				3.2466824054718018
			],
			"type":"VEC3"
		},
		{
			"bufferView":26,
			"componentType":5126,
			"count":24,
			"type":"VEC3"
		},
		{
			"bufferView":27,
			"componentType":5126,
			"count":24,
			"type":"VEC2"
		},
		{
			"bufferView":28,
			"componentType":5126,
			"count":24,
			"max":[
				4.784336566925049,
				-1.8555552959442139,
				13.111799240112305
			],
			"min":[
				-5.28077507019043,
				-5.960503578186035,
				3.0466878414154053
			],
			"type":"VEC3"
		},
		{
			"bufferView":29,
			"componentType":5126,
			"count":24,
			"type":"VEC3"
		},
		{
			"bufferView":30,
			"componentType":5126,
			"count":24,
			"type":"VEC2"
		},
		{
			"bufferView":31,
			"componentType":5126,
			"count":24,
			"max":[
				4.781357765197754,
				-2.2555553913116455,
				12.711810111999512
			],
			"min":[
				-5.283753395080566,
				-6.360503196716309,
				2.6466989517211914
			],
			"type":"VEC3"
		},
		{
			"bufferView":32,
			"componentType":5126,
			"count":24,
			"type":"VEC3"
		},
		{
			"bufferView":33,
			"componentType":5126,
			"count":24,
			"type":"VEC2"
		},
		{
			"bufferView":34,
			"componentType":5126,
			"count":24,
			"max":[
				4.782846927642822,
				-2.0555553436279297,
				12.911805152893066
			],
			"min":[
				-5.282264232635498,
				-6.160503387451172,
				2.846693277359009
			],
			"type":"VEC3"
		},
		{
			"bufferView":35,
			"componentType":5126,
			"count":24,
			"type":"VEC3"
		},
		{
			"bufferView":36,
			"componentType":5126,
			"count":24,
			"type":"VEC2"
		},
		{
			"bufferView":37,
			"componentType":5126,
			"count":24,
			"max":[
				4.778378963470459,
				-2.655555248260498,
				12.311821937561035
			],
			"min":[
				-5.286732196807861,
				-6.76050329208374,
				2.2467100620269775
			],
			"type":"VEC3"
		},
		{
			"bufferView":38,
			"componentType":5126,
			"count":24,
			"type":"VEC3"
		},
		{
			"bufferView":39,
			"componentType":5126,
			"count":24,
			"type":"VEC2"
		},
		{
			"bufferView":40,
			"componentType":5126,
			"count":24,
			"max":[
				4.7798686027526855,
				-2.4555554389953613,
				12.511815071105957
			],
			"min":[
				-5.285243034362793,
				-6.5605034828186035,
				2.446704387664795
			],
			"type":"VEC3"
		},
		{
			"bufferView":41,
			"componentType":5126,
			"count":24,
			"type":"VEC3"
		},
		{
			"bufferView":42,
			"componentType":5126,
			"count":24,
			"type":"VEC2"
		},
		{
			"bufferView":43,
			"componentType":5126,
			"count":24,
			"max":[
				4.776889801025391,
				-2.855555295944214,
				12.11182689666748
			],
			"min":[
				-5.28822135925293,
				-6.960503578186035,
				2.046715497970581
			],
			"type":"VEC3"
		},
		{
			"bufferView":44,
			"componentType":5126,
			"count":24,
			"type":"VEC3"
		},
		{
			"bufferView":45,
			"componentType":5126,
			"count":24,
			"type":"VEC2"
		},
		{
			"bufferView":46,
			"componentType":5126,
			"count":24,
			"max":[
				4.775400638580322,
				-3.0555553436279297,
				11.911832809448242
			],
			"min":[
				-5.289710998535156,
				-7.160503387451172,
				1.8467210531234741
			],
			"type":"VEC3"
		},
		{
			"bufferView":47,
			"componentType":5126,
			"count":24,
			"type":"VEC3"
		},
		{
			"bufferView":48,
			"componentType":5126,
			"count":24,
			"type":"VEC2"
		},
		{
			"bufferView":49,
			"componentType":5126,
			"count":24,
			"max":[
				4.773910999298096,
				-3.2555553913116455,
				11.711837768554688
			],
			"min":[
				-5.291200160980225,
				-7.360503196716309,
				1.6467264890670776
			],
			"type":"VEC3"
		},
		{
			"bufferView":50,
			"componentType":5126,
			"count":24,
			"type":"VEC3"
		},
		{
			"bufferView":51,
			"componentType":5126,
			"count":24,
			"type":"VEC2"
		},
		{
			"bufferView":52,
			"componentType":5126,
			"count":24,
			"max":[
				4.772421836853027,
				-3.4555554389953613,
				11.511842727661133
			],
			"min":[
				-5.292689323425293,
				-7.5605034828186035,
				1.4467319250106812
			],
			"type":"VEC3"
		},
		{
			"bufferView":53,
			"componentType":5126,
			"count":24,
			"type":"VEC3"
		},
		{
			"bufferView":54,
			"componentType":5126,
			"count":24,
			"type":"VEC2"
		},
		{
			"bufferView":55,
			"componentType":5126,
			"count":24,
			"max":[
				4.770932674407959,
				-3.655555248260498,
				11.311849594116211
			],
			"min":[
				-5.294178485870361,
				-7.76050329208374,
				1.2467377185821533
			],
			"type":"VEC3"
		},
		{
			"bufferView":56,
			"componentType":5126,
			"count":24,
			"type":"VEC3"
		},
		{
			"bufferView":57,
			"componentType":5126,
			"count":24,
			"type":"VEC2"
		},
		{
			"bufferView":58,
			"componentType":5126,
			"count":24,
			"max":[
				4.769443511962891,
				-3.855555295944214,
				11.111854553222656
			],
			"min":[
				-5.295668125152588,
				-7.960503578186035,
				1.0467431545257568
			],
			"type":"VEC3"
		},
		{
			"bufferView":59,
			"componentType":5126,
			"count":24,
			"type":"VEC3"
		},
		{
			"bufferView":60,
			"componentType":5126,
			"count":24,
			"type":"VEC2"
		},
		{
			"bufferView":61,
			"componentType":5126,
			"count":24,
			"max":[
				4.767953872680664,
				-4.05555534362793,
				10.911860466003418
			],
			"min":[
				-5.297157287597656,
				-8.160503387451172,
				0.8467487096786499
			],
			"type":"VEC3"
		},
		{
			"bufferView":62,
			"componentType":5126,
			"count":24,
			"type":"VEC3"
		},
		{
			"bufferView":63,
			"componentType":5126,
			"count":24,
			"type":"VEC2"
		},
		{
			"bufferView":64,
			"componentType":5126,
			"count":24,
			"max":[
				4.764975547790527,
				-4.455555438995361,
				10.511870384216309
			],
			"min":[
				-5.300136089324951,
				-8.560503005981445,
				0.4467597007751465
			],
			"type":"VEC3"
		},
		{
			"bufferView":65,
			"componentType":5126,
			"count":24,
			"type":"VEC3"
		},
		{
			"bufferView":66,
			"componentType":5126,
			"count":24,
			"type":"VEC2"
		},
		{
			"bufferView":67,
			"componentType":5126,
			"count":24,
			"max":[
				4.766464710235596,
				-4.255555152893066,
				10.711865425109863
			],
			"min":[
				-5.298646450042725,
				-8.360503196716309,
				0.6467544436454773
			],
			"type":"VEC3"
		},
		{
			"bufferView":68,
			"componentType":5126,
			"count":24,
			"type":"VEC3"
		},
		{
			"bufferView":69,
			"componentType":5126,
			"count":24,
			"type":"VEC2"
		},
		{
			"bufferView":70,
			"componentType":5126,
			"count":24,
			"max":[
				4.763485908508301,
				-4.655555248260498,
				10.311877250671387
			],
			"min":[
				-5.3016252517700195,
				-8.760503768920898,
				0.2467653900384903
			],
			"type":"VEC3"
		},
		{
			"bufferView":71,
			"componentType":5126,
			"count":24,
			"type":"VEC3"
		},
		{
			"bufferView":72,
			"componentType":5126,
			"count":24,
			"type":"VEC2"
		},
		{
			"bufferView":73,
			"componentType":5126,
			"count":24,
			"max":[
				4.761996746063232,
				-4.855555534362793,
				10.111882209777832
			],
			"min":[
				-5.303114414215088,
				-8.960503578186035,
				0.04677063971757889
			],
			"type":"VEC3"
		},
		{
			"bufferView":74,
			"componentType":5126,
			"count":24,
			"type":"VEC3"
		},
		{
			"bufferView":75,
			"componentType":5126,
			"count":24,
			"type":"VEC2"
		},
		{
			"bufferView":76,
			"componentType":5126,
			"count":24,
			"max":[
				4.760507583618164,
				-5.05555534362793,
				9.911888122558594
			],
			"min":[
				-5.3046040534973145,
				-9.160503387451172,
				-0.15322363376617432
			],
			"type":"VEC3"
		},
		{
			"bufferView":77,
			"componentType":5126,
			"count":24,
			"type":"VEC3"
		},
		{
			"bufferView":78,
			"componentType":5126,
			"count":24,
			"type":"VEC2"
		},
		{
			"bufferView":79,
			"componentType":5126,
			"count":24,
			"max":[
				4.7590179443359375,
				-5.255555152893066,
				9.711893081665039
			],
			"min":[
				-5.306093215942383,
				-9.360503196716309,
				-0.3532178997993469
			],
			"type":"VEC3"
		},
		{
			"bufferView":80,
			"componentType":5126,
			"count":24,
			"type":"VEC3"
		},
		{
			"bufferView":81,
			"componentType":5126,
			"count":24,
			"type":"VEC2"
		},
		{
			"bufferView":82,
			"componentType":5126,
			"count":24,
			"max":[
				4.757528781890869,
				-5.455555438995361,
				9.511898040771484
			],
			"min":[
				-5.307582378387451,
				-9.560503005981445,
				-0.5532126426696777
			],
			"type":"VEC3"
		},
		{
			"bufferView":83,
			"componentType":5126,
			"count":24,
			"type":"VEC3"
		},
		{
			"bufferView":84,
			"componentType":5126,
			"count":24,
			"type":"VEC2"
		},
		{
			"bufferView":85,
			"componentType":5126,
			"count":24,
			"max":[
				4.756039619445801,
				-5.655555248260498,
				9.311904907226562
			],
			"min":[
				-5.309072017669678,
				-9.760503768920898,
				-0.7532069087028503
			],
			"type":"VEC3"
		},
		{
			"bufferView":86,
			"componentType":5126,
			"count":24,
			"type":"VEC3"
		},
		{
			"bufferView":87,
			"componentType":5126,
			"count":24,
			"type":"VEC2"
		},
		{
			"bufferView":88,
			"componentType":5126,
			"count":24,
			"max":[
				4.754549980163574,
				-5.855555534362793,
				9.111909866333008
			],
			"min":[
				-5.310561180114746,
				-9.960503578186035,
				-0.9532017111778259
			],
			"type":"VEC3"
		},
		{
			"bufferView":89,
			"componentType":5126,
			"count":24,
			"type":"VEC3"
		},
		{
			"bufferView":90,
			"componentType":5126,
			"count":24,
			"type":"VEC2"
		},
		{
			"bufferView":91,
			"componentType":5126,
			"count":24,
			"max":[
				4.753060817718506,
				-6.05555534362793,
				8.91191577911377
			],
			"min":[
				-5.3120503425598145,
				-10.160503387451172,
				-1.1531959772109985
			],
			"type":"VEC3"
		},
		{
			"bufferView":92,
			"componentType":5126,
			"count":24,
			"type":"VEC3"
		},
		{
			"bufferView":93,
			"componentType":5126,
			"count":24,
			"type":"VEC2"
		},
		{
			"bufferView":94,
			"componentType":5126,
			"count":24,
			"max":[
				4.7515716552734375,
				-6.255555152893066,
				8.711920738220215
			],
			"min":[
				-5.313539505004883,
				-10.360503196716309,
				-1.353190302848816
			],
			"type":"VEC3"
		},
		{
			"bufferView":95,
			"componentType":5126,
			"count":24,
			"type":"VEC3"
		},
		{
			"bufferView":96,
			"componentType":5126,
			"count":24,
			"type":"VEC2"
		},
		{
			"bufferView":97,
			"componentType":5126,
			"count":24,
			"max":[
				4.750082492828369,
				-6.455555438995361,
				8.51192569732666
			],
			"min":[
				-5.315029144287109,
				-10.560503005981445,
				-1.5531851053237915
			],
			"type":"VEC3"
		},
		{
			"bufferView":98,
			"componentType":5126,
			"count":24,
			"type":"VEC3"
		},
		{
			"bufferView":99,
			"componentType":5126,
			"count":24,
			"type":"VEC2"
		},
		{
			"bufferView":100,
			"componentType":5126,
			"count":24,
			"max":[
				4.748592853546143,
				-6.655555248260498,
				8.311932563781738
			],
			"min":[
				-5.316518306732178,
				-10.760503768920898,
				-1.7531793117523193
			],
			"type":"VEC3"
		},
		{
			"bufferView":101,
			"componentType":5126,
			"count":24,
			"type":"VEC3"
		},
		{
			"bufferView":102,
			"componentType":5126,
			"count":24,
			"type":"VEC2"
		},
		{
			"bufferView":103,
			"componentType":5126,
			"count":24,
			"max":[
				4.747103691101074,
				-6.855555534362793,
				8.111937522888184
			],
			"min":[
				-5.318007469177246,
				-10.960503578186035,
				-1.953174114227295
			],
			"type":"VEC3"
		},
		{
			"bufferView":104,
			"componentType":5126,
			"count":24,
			"type":"VEC3"
		},
		{
			"bufferView":105,
			"componentType":5126,
			"count":24,
			"type":"VEC2"
		},
		{
			"bufferView":106,
			"componentType":5126,
			"count":24,
			"max":[
				4.745614528656006,
				-7.05555534362793,
				7.911942958831787
			],
			"min":[
				-5.319497108459473,
				-11.160503387451172,
				-2.1531684398651123
			],
			"type":"VEC3"
		},
		{
			"bufferView":107,
			"componentType":5126,
			"count":24,
			"type":"VEC3"
		},
		{
			"bufferView":108,
			"componentType":5126,
			"count":24,
			"type":"VEC2"
		},
		{
			"bufferView":109,
			"componentType":5126,
			"count":24,
			"max":[
				4.744124889373779,
				-7.255555152893066,
				7.711948871612549
			],
			"min":[
				-5.320986270904541,
				-11.360503196716309,
				-2.3531625270843506
			],
			"type":"VEC3"
		},
		{
			"bufferView":110,
			"componentType":5126,
			"count":24,
			"type":"VEC3"
		},
		{
			"bufferView":111,
			"componentType":5126,
			"count":24,
			"type":"VEC2"
		},
		{
			"bufferView":112,
			"componentType":5126,
			"count":24,
			"max":[
				4.742635726928711,
				-7.455555438995361,
				7.511953830718994
			],
			"min":[
				-5.322475433349609,
				-11.560503005981445,
				-2.553157329559326
			],
			"type":"VEC3"
		},
		{
			"bufferView":113,
			"componentType":5126,
			"count":24,
			"type":"VEC3"
		},
		{
			"bufferView":114,
			"componentType":5126,
			"count":24,
			"type":"VEC2"
		},
		{
			"bufferView":115,
			"componentType":5126,
			"count":24,
			"max":[
				4.741146564483643,
				-7.655555248260498,
				7.311959743499756
			],
			"min":[
				-5.323965072631836,
				-11.760503768920898,
				-2.7531516551971436
			],
			"type":"VEC3"
		},
		{
			"bufferView":116,
			"componentType":5126,
			"count":24,
			"type":"VEC3"
		},
		{
			"bufferView":117,
			"componentType":5126,
			"count":24,
			"type":"VEC2"
		},
		{
			"bufferView":118,
			"componentType":5126,
			"count":24,
			"max":[
				4.739656925201416,
				-7.855555534362793,
				7.111964702606201
			],
			"min":[
				-5.325454235076904,
				-11.960503578186035,
				-2.953146457672119
			],
			"type":"VEC3"
		},
		{
			"bufferView":119,
			"componentType":5126,
			"count":24,
			"type":"VEC3"
		},
		{
			"bufferView":120,
			"componentType":5126,
			"count":24,
			"type":"VEC2"
		},
		{
			"bufferView":121,
			"componentType":5126,
			"count":24,
			"max":[
				4.738167762756348,
				-8.05555534362793,
				6.911970615386963
			],
			"min":[
				-5.326943397521973,
				-12.160503387451172,
				-3.1531407833099365
			],
			"type":"VEC3"
		},
		{
			"bufferView":122,
			"componentType":5126,
			"count":24,
			"type":"VEC3"
		},
		{
			"bufferView":123,
			"componentType":5126,
			"count":24,
			"type":"VEC2"
		},
		{
			"bufferView":124,
			"componentType":5126,
			"count":24,
			"max":[
				4.736678600311279,
				-8.255555152893066,
				6.711976528167725
			],
			"min":[
				-5.328433036804199,
				-12.360503196716309,
				-3.353134870529175
			],
			"type":"VEC3"
		},
		{
			"bufferView":125,
			"componentType":5126,
			"count":24,
			"type":"VEC3"
		},
		{
			"bufferView":126,
			"componentType":5126,
			"count":24,
			"type":"VEC2"
		},
		{
			"bufferView":127,
			"componentType":5126,
			"count":24,
			"max":[
				4.735188961029053,
				-8.455554962158203,
				6.511981964111328
			],
			"min":[
				-5.329922199249268,
				-12.560503005981445,
				-3.553129196166992
			],
			"type":"VEC3"
		},
		{
			"bufferView":128,
			"componentType":5126,
			"count":24,
			"type":"VEC3"
		},
		{
			"bufferView":129,
			"componentType":5126,
			"count":24,
			"type":"VEC2"
		},
		{
			"bufferView":130,
			"componentType":5126,
			"count":24,
			"max":[
				4.733699798583984,
				-8.655555725097656,
				6.311986923217773
			],
			"min":[
				-5.331411361694336,
				-12.760503768920898,
				-3.753124475479126
			],
			"type":"VEC3"
		},
		{
			"bufferView":131,
			"componentType":5126,
			"count":24,
			"type":"VEC3"
		},
		{
			"bufferView":132,
			"componentType":5126,
			"count":24,
			"type":"VEC2"
		},
		{
			"bufferView":133,
			"componentType":5126,
			"count":24,
			"max":[
				4.732210636138916,
				-8.855555534362793,
				6.111992359161377
			],
			"min":[
				-5.332900524139404,
				-12.960503578186035,
				-3.9531188011169434
			],
			"type":"VEC3"
		},
		{
			"bufferView":134,
			"componentType":5126,
			"count":24,
			"type":"VEC3"
		},
		{
			"bufferView":135,
			"componentType":5126,
			"count":24,
			"type":"VEC2"
		},
		{
			"bufferView":136,
			"componentType":5126,
			"count":24,
			"max":[
				4.730721473693848,
				-9.05555534362793,
				5.911998271942139
			],
			"min":[
				-5.334390163421631,
				-13.160503387451172,
				-4.153112888336182
			],
			"type":"VEC3"
		},
		{
			"bufferView":137,
			"componentType":5126,
			"count":24,
			"type":"VEC3"
		},
		{
			"bufferView":138,
			"componentType":5126,
			"count":24,
			"type":"VEC2"
		},
		{
			"bufferView":139,
			"componentType":5126,
			"count":24,
			"max":[
				4.729231834411621,
				-9.255555152893066,
				5.7120041847229
			],
			"min":[
				-5.335879325866699,
				-13.360503196716309,
				-4.35310697555542
			],
			"type":"VEC3"
		},
		{
			"bufferView":140,
			"componentType":5126,
			"count":24,
			"type":"VEC3"
		},
		{
			"bufferView":141,
			"componentType":5126,
			"count":24,
			"type":"VEC2"
		},
		{
			"bufferView":142,
			"componentType":5126,
			"count":24,
			"max":[
				4.727742671966553,
				-9.455554962158203,
				5.512009620666504
			],
			"min":[
				-5.337368488311768,
				-13.560503005981445,
				-4.553101539611816
			],
			"type":"VEC3"
		},
		{
			"bufferView":143,
			"componentType":5126,
			"count":24,
			"type":"VEC3"
		},
		{
			"bufferView":144,
			"componentType":5126,
			"count":24,
			"type":"VEC2"
		},
		{
			"bufferView":145,
			"componentType":5126,
			"count":24,
			"max":[
				4.726253509521484,
				-9.655555725097656,
				5.312014579772949
			],
			"min":[
				-5.338858127593994,
				-13.760503768920898,
				-4.753096580505371
			],
			"type":"VEC3"
		},
		{
			"bufferView":146,
			"componentType":5126,
			"count":24,
			"type":"VEC3"
		},
		{
			"bufferView":147,
			"componentType":5126,
			"count":24,
			"type":"VEC2"
		},
		{
			"bufferView":148,
			"componentType":5126,
			"count":24,
			"max":[
				4.724763870239258,
				-9.855555534362793,
				5.112020015716553
			],
			"min":[
				-5.3403472900390625,
				-13.960503578186035,
				-4.953090667724609
			],
			"type":"VEC3"
		},
		{
			"bufferView":149,
			"componentType":5126,
			"count":24,
			"type":"VEC3"
		},
		{
			"bufferView":150,
			"componentType":5126,
			"count":24,
			"type":"VEC2"
		},
		{
			"bufferView":151,
			"componentType":5126,
			"count":24,
			"max":[
				4.7232747077941895,
				-10.05555534362793,
				4.9120259284973145
			],
			"min":[
				-5.341836452484131,
				-14.160503387451172,
				-5.153085231781006
			],
			"type":"VEC3"
		},
		{
			"bufferView":152,
			"componentType":5126,
			"count":24,
			"type":"VEC3"
		},
		{
			"bufferView":153,
			"componentType":5126,
			"count":24,
			"type":"VEC2"
		}
	],
	"bufferViews":[
		{
			"buffer":0,
			"byteLength":288,
			"byteOffset":0,
			"target":34962
		},
		{
			"buffer":0,
			"byteLength":288,
			"byteOffset":288,
			"target":34962
		},
		{
			"buffer":0,
			"byteLength":192,
			"byteOffset":576,
			"target":34962
		},
		{
			"buffer":0,
			"byteLength":72,
			"byteOffset":768,
			"target":34963
		},
		{
			"buffer":0,
			"byteLength":288,
			"byteOffset":840,
			"target":34962
		},
		{
			"buffer":0,
			"byteLength":288,
			"byteOffset":1128,
			"target":34962
		},
		{
			"buffer":0,
			"byteLength":192,
			"byteOffset":1416,
			"target":34962
		},
		{
			"buffer":0,
			"byteLength":288,
			"byteOffset":1608,
			"target":34962
		},
		{
			"buffer":0,
			"byteLength":288,
			"byteOffset":1896,
			"target":34962
		},
		{
			"buffer":0,
			"byteLength":192,
			"byteOffset":2184,
			"target":34962
		},
		{
			"buffer":0,
			"byteLength":288,
			"byteOffset":2376,
			"target":34962
		},
		{
			"buffer":0,
			"byteLength":288,
			"byteOffset":2664,
			"target":34962
		},
		{
			"buffer":0,
			"byteLength":192,
			"byteOffset":2952,
			"target":34962
		},
		{
			"buffer":0,
			"byteLength":288,
			"byteOffset":3144,
			"target":34962
		},
		{
			"buffer":0,
			"byteLength":288,
			"byteOffset":3432,
			"target":34962
		},
		{
			"buffer":0,
			"byteLength":192,
			"byteOffset":3720,
			"target":34962
		},
		{
			"buffer":0,
			"byteLength":288,
			"byteOffset":3912,
			"target":34962
		},
		{
			"buffer":0,
			"byteLength":288,
			"byteOffset":4200,
			"target":34962
		},
		{
			"buffer":0,
			"byteLength":192,
			"byteOffset":4488,
			"target":34962
		},
		{
			"buffer":0,
			"byteLength":288,
			"byteOffset":4680,
			"target":34962
		},
		{
			"buffer":0,
			"byteLength":288,
			"byteOffset":4968,
			"target":34962
		},
		{
			"buffer":0,
			"byteLength":192,
			"byteOffset":5256,
			"target":34962
		},
		{
			"buffer":0,
			"byteLength":288,
			"byteOffset":5448,
			"target":34962
		},
		{
			"buffer":0,
			"byteLength":288,
			"byteOffset":5736,
			"target":34962
		},
		{
			"buffer":0,
			"byteLength":192,
			"byteOffset":6024,
			"target":34962
		},
		{
			"buffer":0,
			"byteLength":288,
			"byteOffset":6216,
			"target":34962
		},
		{
			"buffer":0,
			"byteLength":288,
			"byteOffset":6504,
			"target":34962
		},
		{
			"buffer":0,
			"byteLength":192,
			"byteOffset":6792,
			"target":34962
		},
		{
			"buffer":0,
			"byteLength":288,
			"byteOffset":6984,
			"target":34962
		},
		{
			"buffer":0,
			"byteLength":288,
			"byteOffset":7272,
			"target":34962
		},
		{
			"buffer":0,
			"byteLength":192,
			"byteOffset":7560,
			"target":34962
		},
		{
			"buffer":0,
			"byteLength":288,
			"byteOffset":7752,
			"target":34962
		},
		{
			"buffer":0,
			"byteLength":288,
			"byteOffset":8040,
			"target":34962
		},
		{
			"buffer":0,
			"byteLength":192,
			"byteOffset":8328,
			"target":34962
		},
		{
			"buffer":0,
			"byteLength":288,
			"byteOffset":8520,
			"target":34962
		},
		{
			"buffer":0,
			"byteLength":288,
			"byteOffset":8808,
			"target":34962
		},
		{
			"buffer":0,
			"byteLength":192,
			"byteOffset":9096,
			"target":34962
		},
		{
			"buffer":0,
			"byteLength":288,
			"byteOffset":9288,
			"target":34962
		},
		{
			"buffer":0,
			"byteLength":288,
			"byteOffset":9576,
			"target":34962
		},
		{
			"buffer":0,
			"byteLength":192,
			"byteOffset":9864,
			"target":34962
		},
		{
			"buffer":0,
			"byteLength":288,
			"byteOffset":10056,
			"target":34962
		},
		{
			"buffer":0,
			"byteLength":288,
			"byteOffset":10344,
			"target":34962
		},
		{
			"buffer":0,
			"byteLength":192,
			"byteOffset":10632,
			"target":34962
		},
		{
			"buffer":0,
			"byteLength":288,
			"byteOffset":10824,
			"target":34962
		},
		{
			"buffer":0,
			"byteLength":288,
			"byteOffset":11112,
			"target":34962
		},
		{
			"buffer":0,
			"byteLength":192,
			"byteOffset":11400,
			"target":34962
		},
		{
			"buffer":0,
			"byteLength":288,
			"byteOffset":11592,
			"target":34962
		},
		{
			"buffer":0,
			"byteLength":288,
			"byteOffset":11880,
			"target":34962
		},
		{
			"buffer":0,
			"byteLength":192,
			"byteOffset":12168,
			"target":34962
		},
		{
			"buffer":0,
			"byteLength":288,
			"byteOffset":12360,
			"target":34962
		},
		{
			"buffer":0,
			"byteLength":288,
			"byteOffset":12648,
			"target":34962
		},
		{
			"buffer":0,
			"byteLength":192,
			"byteOffset":12936,
			"target":34962
		},
		{
			"buffer":0,
			"byteLength":288,
			"byteOffset":13128,
			"target":34962
		},
		{
			"buffer":0,
			"byteLength":288,
			"byteOffset":13416,
			"target":34962
		},
		{
			"buffer":0,
			"byteLength":192,
			"byteOffset":13704,
			"target":34962
		},
		{
			"buffer":0,
			"byteLength":288,
			"byteOffset":13896,
			"target":34962
		},
		{
			"buffer":0,
			"byteLength":288,
			"byteOffset":14184,
			"target":34962
		},
		{
			"buffer":0,
			"byteLength":192,
			"byteOffset":14472,
			"target":34962
		},
		{
			"buffer":0,
			"byteLength":288,
			"byteOffset":14664,
			"target":34962
		},
		{
			"buffer":0,
			"byteLength":288,
			"byteOffset":14952,
			"target":34962
		},
		{
			"buffer":0,
			"byteLength":192,
			"byteOffset":15240,
			"target":34962
		},
		{
			"buffer":0,
			"byteLength":288,
			"byteOffset":15432,
			"target":34962
		},
		{
			"buffer":0,
			"byteLength":288,
			"byteOffset":15720,
			"target":34962
		},
		{
			"buffer":0,
			"byteLength":192,
			"byteOffset":16008,
			"target":34962
		},
		{
			"buffer":0,
			"byteLength":288,
			"byteOffset":16200,
			"target":34962
		},
		{
			"buffer":0,
			"byteLength":288,
			"byteOffset":16488,
			"target":34962
		},
		{
			"buffer":0,
			"byteLength":192,
			"byteOffset":16776,
			"target":34962
		},
		{
			"buffer":0,
			"byteLength":288,
			"byteOffset":16968,
			"target":34962
		},
		{
			"buffer":0,
			"byteLength":288,
			"byteOffset":17256,
			"target":34962
		},
		{
			"buffer":0,
			"byteLength":192,
			"byteOffset":17544,
			"target":34962
		},
		{
			"buffer":0,
			"byteLength":288,
			"byteOffset":17736,
			"target":34962
		},
		{
			"buffer":0,
			"byteLength":288,
			"byteOffset":18024,
			"target":34962
		},
		{
			"buffer":0,
			"byteLength":192,
			"byteOffset":18312,
			"target":34962
		},
		{
			"buffer":0,
			"byteLength":288,
			"byteOffset":18504,
			"target":34962
		},
		{
			"buffer":0,
			"byteLength":288,
			"byteOffset":18792,
			"target":34962
		},
		{
			"buffer":0,
			"byteLength":192,
			"byteOffset":19080,
			"target":34962
		},
		{
			"buffer":0,
			"byteLength":288,
			"byteOffset":19272,
			"target":34962
		},
		{
			"buffer":0,
			"byteLength":288,
			"byteOffset":19560,
			"target":34962
		},
		{
			"buffer":0,
			"byteLength":192,
			"byteOffset":19848,
			"target":34962
		},
		{
			"buffer":0,
			"byteLength":288,
			"byteOffset":20040,
			"target":34962
		},
		{
			"buffer":0,
			"byteLength":288,
			"byteOffset":20328,
			"target":34962
		},
		{
			"buffer":0,
			"byteLength":192,
			"byteOffset":20616,
			"target":34962
		},
		{
			"buffer":0,
			"byteLength":288,
			"byteOffset":20808,
			"target":34962
		},
		{
			"buffer":0,
			"byteLength":288,
			"byteOffset":21096,
			"target":34962
		},
		{
			"buffer":0,
			"byteLength":192,
			"byteOffset":21384,
			"target":34962
		},
		{
			"buffer":0,
			"byteLength":288,
			"byteOffset":21576,
			"target":34962
		},
		{
			"buffer":0,
			"byteLength":288,
			"byteOffset":21864,
			"target":34962
		},
		{
			"buffer":0,
			"byteLength":192,
			"byteOffset":22152,
			"target":34962
		},
		{
			"buffer":0,
			"byteLength":288,
			"byteOffset":22344,
			"target":34962
		},
		{
			"buffer":0,
			"byteLength":288,
			"byteOffset":22632,
			"target":34962
		},
		{
			"buffer":0,
			"byteLength":192,
			"byteOffset":22920,
			"target":34962
		},
		{
			"buffer":0,
			"byteLength":288,
			"byteOffset":23112,
			"target":34962
		},
		{
			"buffer":0,
			"byteLength":288,
			"byteOffset":23400,
			"target":34962
		},
		{
			"buffer":0,
			"byteLength":192,
			"byteOffset":23688,
			"target":34962
		},
		{
			"buffer":0,
			"byteLength":288,
			"byteOffset":23880,
			"target":34962
		},
		{
			"buffer":0,
			"byteLength":288,
			"byteOffset":24168,
			"target":34962
		},
		{
			"buffer":0,
			"byteLength":192,
			"byteOffset":24456,
			"target":34962
		},
		{
			"buffer":0,
			"byteLength":288,
			"byteOffset":24648,
			"target":34962
		},
		{
			"buffer":0,
			"byteLength":288,
			"byteOffset":24936,
			"target":34962
		},
		{
			"buffer":0,
			"byteLength":192,
			"byteOffset":25224,
			"target":34962
		},
		{
			"buffer":0,
			"byteLength":288,
			"byteOffset":25416,
			"target":34962
		},
		{
			"buffer":0,
			"byteLength":288,
			"byteOffset":25704,
			"target":34962
		},
		{
			"buffer":0,
			"byteLength":192,
			"byteOffset":25992,
			"target":34962
		},
		{
			"buffer":0,
			"byteLength":288,
			"byteOffset":26184,
			"target":34962
		},
		{
			"buffer":0,
			"byteLength":288,
			"byteOffset":26472,
			"target":34962
		},
		{
			"buffer":0,
			"byteLength":192,
			"byteOffset":26760,
			"target":34962
		},
		{
			"buffer":0,
			"byteLength":288,
			"byteOffset":26952,
			"target":34962
		},
		{
			"buffer":0,
			"byteLength":288,
			"byteOffset":27240,
			"target":34962
		},
		{
			"buffer":0,
			"byteLength":192,
			"byteOffset":27528,
			"target":34962
		},
		{
			"buffer":0,
			"byteLength":288,
			"byteOffset":27720,
			"target":34962
		},
		{
			"buffer":0,
			"byteLength":288,
			"byteOffset":28008,
			"target":34962
		},
		{
			"buffer":0,
			"byteLength":192,
			"byteOffset":28296,
			"target":34962
		},
		{
			"buffer":0,
			"byteLength":288,
			"byteOffset":28488,
			"target":34962
		},
		{
			"buffer":0,
			"byteLength":288,
			"byteOffset":28776,
			"target":34962
		},
		{
			"buffer":0,
			"byteLength":192,
			"byteOffset":29064,
			"target":34962
		},
		{
			"buffer":0,
			"byteLength":288,
			"byteOffset":29256,
			"target":34962
		},
		{
			"buffer":0,
			"byteLength":288,
			"byteOffset":29544,
			"target":34962
		},
		{
			"buffer":0,
			"byteLength":192,
			"byteOffset":29832,
			"target":34962
		},
		{
			"buffer":0,
			"byteLength":288,
			"byteOffset":30024,
			"target":34962
		},
		{
			"buffer":0,
			"byteLength":288,
			"byteOffset":30312,
			"target":34962
		},
		{
			"buffer":0,
			"byteLength":192,
			"byteOffset":30600,
			"target":34962
		},
		{
			"buffer":0,
			"byteLength":288,
			"byteOffset":30792,
			"target":34962
		},
		{
			"buffer":0,
			"byteLength":288,
			"byteOffset":31080,
			"target":34962
		},
		{
			"buffer":0,
			"byteLength":192,
			"byteOffset":31368,
			"target":34962
		},
		{
			"buffer":0,
			"byteLength":288,
			"byteOffset":31560,
			"target":34962
		},
		{
			"buffer":0,
			"byteLength":288,
			"byteOffset":31848,
			"target":34962
		},
		{
			"buffer":0,
			"byteLength":192,
			"byteOffset":32136,
			"target":34962
		},
		{
			"buffer":0,
			"byteLength":288,
			"byteOffset":32328,
			"target":34962
		},
		{
			"buffer":0,
			"byteLength":288,
			"byteOffset":32616,
			"target":34962
		},
		{
			"buffer":0,
			"byteLength":192,
			"byteOffset":32904,
			"target":34962
		},
		{
			"buffer":0,
			"byteLength":288,
			"byteOffset":33096,
			"target":34962
		},
		{
			"buffer":0,
			"byteLength":288,
			"byteOffset":33384,
			"target":34962
		},
		{
			"buffer":0,
			"byteLength":192,
			"byteOffset":33672,
			"target":34962
		},
		{
			"buffer":0,
			"byteLength":288,
			"byteOffset":33864,
			"target":34962
		},
		{
			"buffer":0,
			"byteLength":288,
			"byteOffset":34152,
			"target":34962
		},
		{
			"buffer":0,
			"byteLength":192,
			"byteOffset":34440,
			"target":34962
		},
		{
			"buffer":0,
			"byteLength":288,
			"byteOffset":34632,
			"target":34962
		},
		{
			"buffer":0,
			"byteLength":288,
			"byteOffset":34920,
			"target":34962
		},
		{
			"buffer":0,
			"byteLength":192,
			"byteOffset":35208,
			"target":34962
		},
		{
			"buffer":0,
			"byteLength":288,
			"byteOffset":35400,
			"target":34962
		},
		{
			"buffer":0,
			"byteLength":288,
			"byteOffset":35688,
			"target":34962
		},
		{
			"buffer":0,
			"byteLength":192,
			"byteOffset":35976,
			"target":34962
		},
		{
			"buffer":0,
			"byteLength":288,
			"byteOffset":36168,
			"target":34962
		},
		{
			"buffer":0,
			"byteLength":288,
			"byteOffset":36456,
			"target":34962
		},
		{
			"buffer":0,
			"byteLength":192,
			"byteOffset":36744,
			"target":34962
		},
		{
			"buffer":0,
			"byteLength":288,
			"byteOffset":36936,
			"target":34962
		},
		{
			"buffer":0,
			"byteLength":288,
			"byteOffset":37224,
			"target":34962
		},
		{
			"buffer":0,
			"byteLength":192,
			"byteOffset":37512,
			"target":34962
		},
		{
			"buffer":0,
			"byteLength":288,
			"byteOffset":37704,
			"target":34962
		},
		{
			"buffer":0,
			"byteLength":288,
			"byteOffset":37992,
			"target":34962
		},
		{
			"buffer":0,
			"byteLength":192,
			"byteOffset":38280,
			"target":34962
		},
		{
			"buffer":0,
			"byteLength":288,
			"byteOffset":38472,
			"target":34962
		},
		{
			"buffer":0,
			"byteLength":288,
			"byteOffset":38760,
			"target":34962
		},
		{
			"buffer":0,
			"byteLength":192,
			"byteOffset":39048,
			"target":34962
		}
	],
	"samplers":[
		{
			"magFilter":9729,
			"minFilter":9987
		}
	],
	"buffers":[
		{
			"byteLength":39240,
			"uri":"Slope.bin"
		}
	]
}
