{
	"asset":{
		"generator":"Khronos glTF Blender I/O v5.1.19",
		"version":"2.0"
	},
	"scene":0,
	"scenes":[
		{
			"name":"Scene",
			"nodes":[
				0,
				1
			]
		}
	],
	"nodes":[
		{
			"mesh":0,
			"name":"torchstand"
		},
		{
			"mesh":1,
			"name":"torch"
		}
	],
	"materials":[
		{
			"doubleSided":true,
			"name":"IRON",
			"normalTexture":{
				"index":0
			},
			"pbrMetallicRoughness":{
				"baseColorTexture":{
					"index":1
				},
				"metallicRoughnessTexture":{
					"index":2
				}
			}
		},
		{
			"doubleSided":true,
			"name":"torch",
			"normalTexture":{
				"index":3
			},
			"pbrMetallicRoughness":{
				"baseColorTexture":{
					"index":4
				},
				"metallicFactor":0,
				"metallicRoughnessTexture":{
					"index":5
				}
			}
		}
	],
	"meshes":[
		{
			"name":"\u5e73\u9762",
			"primitives":[
				{
					"attributes":{
						"POSITION":0,
						"NORMAL":1,
						"TEXCOORD_0":2
					},
					"indices":3,
					"material":0
				}
			]
		},
		{
			"name":"\u5186\u67f1",
			"primitives":[
				{
					"attributes":{
						"POSITION":4,
						"NORMAL":5,
						"TEXCOORD_0":6
					},
					"indices":7,
					"material":1
				}
			]
		}
	],
	"textures":[
		{
			"sampler":0,
			"source":0
		},
		{
			"sampler":0,
			"source":1
		},
		{
			"sampler":0,
			"source":2
		},
		{
			"sampler":0,
			"source":3
		},
		{
			"sampler":0,
			"source":4
		},
		{
			"sampler":0,
			"source":2
		}
	],
	"images":[
		{
			"mimeType":"image/png",
			"name":"IRON_Normal_OpenGL",
			"uri":"IRON_Normal_OpenGL.png"
		},
		{
			"mimeType":"image/png",
			"name":"IRON_Base_color",
			"uri":"IRON_Base_color.png"
		},
		{
			"mimeType":"image/png",
			"name":"Image",
			"uri":"Image.png"
		},
		{
			"mimeType":"image/png",
			"name":"torch_Normal_OpenGL",
			"uri":"torch_Normal_OpenGL.png"
		},
		{
			"mimeType":"image/png",
			"name":"torch_Base_color",
			"uri":"torch_Base_color.png"
		}
	],
	"accessors":[
		{
			"bufferView":0,
			"componentType":5126,
			"count":836,
			"max":[
				0.344842791557312,
				1.9440526962280273,
				0.6444829702377319
			],
			"min":[
				-0.344842791557312,
				-1.818150281906128,
				0.008240655064582825
			],
			"type":"VEC3"
		},
		{
			"bufferView":1,
			"componentType":5126,
			"count":836,
			"type":"VEC3"
		},
		{
			"bufferView":2,
			"componentType":5126,
			"count":836,
			"type":"VEC2"
		},
		{
			"bufferView":3,
			"componentType":5123,
			"count":2496,
			"type":"SCALAR"
		},
		{
			"bufferView":4,
			"componentType":5126,
			"count":1457,
			"max":[
				0.7111451625823975,
				2.3370988368988037,
				1.6574207544326782
			],
			"min":[
				-0.7111449837684631,
				-1.3256962299346924,
				0.04139623045921326
			],
			"type":"VEC3"
		},
		{
			"bufferView":5,
			"componentType":5126,
			"count":1457,
			"type":"VEC3"
		},
		{
			"bufferView":6,
			"componentType":5126,
			"count":1457,
			"type":"VEC2"
		},
		{
			"bufferView":7,
			"componentType":5123,
			"count":4155,
			"type":"SCALAR"
		}
	],
	"bufferViews":[
		{
			"buffer":0,
			"byteLength":10032,
			"byteOffset":0,
			"target":34962
		},
		{
			"buffer":0,
			"byteLength":10032,
			"byteOffset":10032,
			"target":34962
		},
		{
			"buffer":0,
			"byteLength":6688,
			"byteOffset":20064,
			"target":34962
		},
		{
			"buffer":0,
			"byteLength":4992,
			"byteOffset":26752,
			"target":34963
		},
		{
			"buffer":0,
			"byteLength":17484,
			"byteOffset":31744,
			"target":34962
		},
		{
			"buffer":0,
			"byteLength":17484,
			"byteOffset":49228,
			"target":34962
		},
		{
			"buffer":0,
			"byteLength":11656,
			"byteOffset":66712,
			"target":34962
		},
		{
			"buffer":0,
			"byteLength":8310,
			"byteOffset":78368,
			"target":34963
		}
	],
	"samplers":[
		{
			"magFilter":9729,
			"minFilter":9987
		}
	],
	"buffers":[
		{
			"byteLength":86680,
			"uri":"Torch.bin"
		}
	]
}
