{
	"asset":{
		"generator":"Khronos glTF Blender I/O v5.1.19",
		"version":"2.0"
	},
	"extensionsUsed":[
		"KHR_materials_specular"
	],
	"scene":0,
	"scenes":[
		{
			"name":"Scene",
			"nodes":[
				0
			]
		}
	],
	"nodes":[
		{
			"mesh":0,
			"name":"Cylinder01"
		}
	],
	"materials":[
		{
			"doubleSided":true,
			"extensions":{
				"KHR_materials_specular":{
					"specularColorFactor":[
						1.7999999523162842,
						1.7999999523162842,
						1.7999999523162842
					]
				}
			},
			"name":"Material #37",
			"pbrMetallicRoughness":{
				"baseColorFactor":[
					0.2705882489681244,
					0.2705882489681244,
					0.2705882489681244,
					1
				],
				"metallicFactor":0,
				"roughnessFactor":0.2535736560821533
			}
		},
		{
			"doubleSided":true,
			"extensions":{
				"KHR_materials_specular":{
					"specularColorFactor":[
						1.7999999523162842,
						1.7999999523162842,
						1.7999999523162842
					]
				}
			},
			"name":"Material #38",
			"pbrMetallicRoughness":{
				"metallicFactor":0,
				"roughnessFactor":0.6000000238418579
			}
		}
	],
	"meshes":[
		{
			"name":"Cylinder01_ncl1_1",
			"primitives":[
				{
					"attributes":{
						"POSITION":0,
						"NORMAL":1,
						"TEXCOORD_0":2,
						"COLOR_0":3,
						"COLOR_1":4
					},
					"indices":5,
					"material":0
				},
				{
					"attributes":{
						"POSITION":6,
						"NORMAL":7,
						"TEXCOORD_0":8,
						"COLOR_0":9,
						"COLOR_1":10
					},
					"indices":11,
					"material":1
				}
			]
		}
	],
	"accessors":[
		{
			"bufferView":0,
			"componentType":5126,
			"count":123,
			"max":[
				0.0875641256570816,
				0.12656134366989136,
				0.2657526135444641
			],
			"min":[
				-0.14979329705238342,
				-0.0991789773106575,
				-0.4133886694908142
			],
			"type":"VEC3"
		},
		{
			"bufferView":1,
			"componentType":5126,
			"count":123,
			"type":"VEC3"
		},
		{
			"bufferView":2,
			"componentType":5126,
			"count":123,
			"type":"VEC2"
		},
		{
			"bufferView":3,
			"componentType":5121,
			"count":123,
			"normalized":true,
			"type":"VEC4"
		},
		{
			"bufferView":4,
			"componentType":5123,
			"count":123,
			"normalized":true,
			"type":"VEC4"
		},
		{
			"bufferView":5,
			"componentType":5123,
			"count":384,
			"type":"SCALAR"
		},
		{
			"bufferView":6,
			"componentType":5126,
			"count":10,
			"max":[
				0.07609476894140244,
				0.11565332859754562,
				-0.4091467261314392
			],
			"min":[
				-0.13832393288612366,
				-0.08827097713947296,
				-0.4091467261314392
			],
			"type":"VEC3"
		},
		{
			"bufferView":7,
			"componentType":5126,
			"count":10,
			"type":"VEC3"
		},
		{
			"bufferView":8,
			"componentType":5126,
			"count":10,
			"type":"VEC2"
		},
		{
			"bufferView":9,
			"componentType":5121,
			"count":10,
			"normalized":true,
			"type":"VEC4"
		},
		{
			"bufferView":10,
			"componentType":5123,
			"count":10,
			"normalized":true,
			"type":"VEC4"
		},
		{
			"bufferView":11,
			"componentType":5123,
			"count":24,
			"type":"SCALAR"
		}
	],
	"bufferViews":[
		{
			"buffer":0,
			"byteLength":1476,
			"byteOffset":0,
			"target":34962
		},
		{
			"buffer":0,
			"byteLength":1476,
			"byteOffset":1476,
			"target":34962
		},
		{
			"buffer":0,
			"byteLength":984,
			"byteOffset":2952,
			"target":34962
		},
		{
			"buffer":0,
			"byteLength":492,
			"byteOffset":3936,
			"target":34962
		},
		{
			"buffer":0,
			"byteLength":984,
			"byteOffset":4428,
			"target":34962
		},
		{
			"buffer":0,
			"byteLength":768,
			"byteOffset":5412,
			"target":34963
		},
		{
			"buffer":0,
			"byteLength":120,
			"byteOffset":6180,
			"target":34962
		},
		{
			"buffer":0,
			"byteLength":120,
			"byteOffset":6300,
			"target":34962
		},
		{
			"buffer":0,
			"byteLength":80,
			"byteOffset":6420,
			"target":34962
		},
		{
			"buffer":0,
			"byteLength":40,
			"byteOffset":6500,
			"target":34962
		},
		{
			"buffer":0,
			"byteLength":80,
			"byteOffset":6540,
			"target":34962
		},
		{
			"buffer":0,
			"byteLength":48,
			"byteOffset":6620,
			"target":34963
		}
	],
	"buffers":[
		{
			"byteLength":6668,
			"uri":"torch.bin"
		}
	]
}
