{
	"asset":{
		"generator":"Khronos glTF Blender I/O v5.1.20",
		"version":"2.0"
	},
	"scene":0,
	"scenes":[
		{
			"name":"Scene",
			"nodes":[
				0
			]
		}
	],
	"nodes":[
		{
			"mesh":0,
			"name":"Pool",
			"scale":[
				0.23245443403720856,
				0.23245443403720856,
				0.23245443403720856
			],
			"translation":[
				0.012044906616210938,
				0,
				0.1303081512451172
			]
		}
	],
	"materials":[
		{
			"doubleSided":true,
			"name":"Stone",
			"pbrMetallicRoughness":{
				"baseColorTexture":{
					"index":0
				},
				"metallicFactor":0,
				"roughnessFactor":0.5
			}
		},
		{
			"name":"Water",
			"pbrMetallicRoughness":{
				"baseColorFactor":[
					0.05331728979945183,
					0.17165909707546234,
					0.8000000715255737,
					1
				],
				"metallicFactor":0,
				"roughnessFactor":0.5
			}
		}
	],
	"meshes":[
		{
			"name":"fountain.001",
			"primitives":[
				{
					"attributes":{
						"POSITION":0,
						"NORMAL":1,
						"TEXCOORD_0":2
					},
					"indices":3,
					"material":0
				},
				{
					"attributes":{
						"POSITION":4,
						"NORMAL":5,
						"TEXCOORD_0":6
					},
					"indices":7,
					"material":1
				}
			]
		}
	],
	"textures":[
		{
			"sampler":0,
			"source":0
		}
	],
	"images":[
		{
			"mimeType":"image/jpeg",
			"name":"Stone",
			"uri":"Stone.jpg"
		}
	],
	"accessors":[
		{
			"bufferView":0,
			"componentType":5126,
			"count":702,
			"max":[
				16.054134368896484,
				2.2794106006622314,
				16.05413246154785
			],
			"min":[
				-16.05413246154785,
				0.04338085651397705,
				-16.054136276245117
			],
			"type":"VEC3"
		},
		{
			"bufferView":1,
			"componentType":5126,
			"count":702,
			"type":"VEC3"
		},
		{
			"bufferView":2,
			"componentType":5126,
			"count":702,
			"type":"VEC2"
		},
		{
			"bufferView":3,
			"componentType":5123,
			"count":2688,
			"type":"SCALAR"
		},
		{
			"bufferView":4,
			"componentType":5126,
			"count":32,
			"max":[
				14.034979820251465,
				1.2999749183654785,
				14.034989356994629
			],
			"min":[
				-14.034984588623047,
				1.2999749183654785,
				-14.034975051879883
			],
			"type":"VEC3"
		},
		{
			"bufferView":5,
			"componentType":5126,
			"count":32,
			"type":"VEC3"
		},
		{
			"bufferView":6,
			"componentType":5126,
			"count":32,
			"type":"VEC2"
		},
		{
			"bufferView":7,
			"componentType":5123,
			"count":90,
			"type":"SCALAR"
		}
	],
	"bufferViews":[
		{
			"buffer":0,
			"byteLength":8424,
			"byteOffset":0,
			"target":34962
		},
		{
			"buffer":0,
			"byteLength":8424,
			"byteOffset":8424,
			"target":34962
		},
		{
			"buffer":0,
			"byteLength":5616,
			"byteOffset":16848,
			"target":34962
		},
		{
			"buffer":0,
			"byteLength":5376,
			"byteOffset":22464,
			"target":34963
		},
		{
			"buffer":0,
			"byteLength":384,
			"byteOffset":27840,
			"target":34962
		},
		{
			"buffer":0,
			"byteLength":384,
			"byteOffset":28224,
			"target":34962
		},
		{
			"buffer":0,
			"byteLength":256,
			"byteOffset":28608,
			"target":34962
		},
		{
			"buffer":0,
			"byteLength":180,
			"byteOffset":28864,
			"target":34963
		}
	],
	"samplers":[
		{
			"magFilter":9729,
			"minFilter":9987
		}
	],
	"buffers":[
		{
			"byteLength":29044,
			"uri":"WarpGateblend.bin"
		}
	]
}
