{
	"asset":{
		"generator":"Khronos glTF Blender I/O v5.1.20",
		"version":"2.0"
	},
	"scene":0,
	"scenes":[
		{
			"name":"Scene",
			"nodes":[
				0
			]
		}
	],
	"nodes":[
		{
			"mesh":0,
			"name":"Rogue_Dagger"
		}
	],
	"materials":[
		{
			"doubleSided":true,
			"name":"Rogue_Dagger",
			"pbrMetallicRoughness":{
				"baseColorTexture":{
					"index":0
				},
				"metallicFactor":0,
				"roughnessFactor":0.5
			}
		}
	],
	"meshes":[
		{
			"name":"Cylinder.004",
			"primitives":[
				{
					"attributes":{
						"POSITION":0,
						"NORMAL":1,
						"TEXCOORD_0":2
					},
					"indices":3,
					"material":0
				}
			]
		}
	],
	"textures":[
		{
			"sampler":0,
			"source":0
		}
	],
	"images":[
		{
			"mimeType":"image/png",
			"name":"Rogue_Dagger_Texture",
			"uri":"Rogue_Dagger_Texture.png"
		}
	],
	"accessors":[
		{
			"bufferView":0,
			"componentType":5126,
			"count":749,
			"max":[
				0.12925533950328827,
				1.3234983682632446,
				0.03253810107707977
			],
			"min":[
				-0.12925533950328827,
				-0.2604295015335083,
				-0.03253811597824097
			],
			"type":"VEC3"
		},
		{
			"bufferView":1,
			"componentType":5126,
			"count":749,
			"type":"VEC3"
		},
		{
			"bufferView":2,
			"componentType":5126,
			"count":749,
			"type":"VEC2"
		},
		{
			"bufferView":3,
			"componentType":5123,
			"count":2004,
			"type":"SCALAR"
		}
	],
	"bufferViews":[
		{
			"buffer":0,
			"byteLength":8988,
			"byteOffset":0,
			"target":34962
		},
		{
			"buffer":0,
			"byteLength":8988,
			"byteOffset":8988,
			"target":34962
		},
		{
			"buffer":0,
			"byteLength":5992,
			"byteOffset":17976,
			"target":34962
		},
		{
			"buffer":0,
			"byteLength":4008,
			"byteOffset":23968,
			"target":34963
		}
	],
	"samplers":[
		{
			"magFilter":9729,
			"minFilter":9987
		}
	],
	"buffers":[
		{
			"byteLength":27976,
			"uri":"Rogue_Dagger.bin"
		}
	]
}
