{
	"asset":{
		"generator":"Khronos glTF Blender I/O v5.1.19",
		"version":"2.0"
	},
	"extensionsUsed":[
		"KHR_materials_specular",
		"KHR_materials_ior"
	],
	"scene":0,
	"scenes":[
		{
			"name":"Scene",
			"nodes":[
				5
			]
		}
	],
	"nodes":[
		{
			"name":"lid",
			"rotation":[
				0.6659048795700073,
				3.621566690981126e-08,
				0.02015288919210434,
				0.745764434337616
			],
			"scale":[
				1,
				1,
				0.9999999403953552
			],
			"translation":[
				2.444721758365631e-09,
				0.8886961340904236,
				-4.889443516731262e-09
			]
		},
		{
			"name":"\u30dc\u30fc\u30f3.002",
			"rotation":[
				-0.3013826310634613,
				3.479630450442528e-08,
				0.0011393442982807755,
				0.9535026550292969
			],
			"scale":[
				0.9999999403953552,
				1,
				1.0000001192092896
			],
			"translation":[
				2.444721758365631e-09,
				0.8886961340904236,
				-4.889443516731262e-09
			]
		},
		{
			"children":[
				0,
				1
			],
			"name":"box",
			"rotation":[
				0.30131739377975464,
				0.016563981771469116,
				-0.006374717224389315,
				0.9533587098121643
			],
			"scale":[
				1,
				0.9999999403953552,
				0.9999999403953552
			]
		},
		{
			"mesh":0,
			"name":"Treasure_Chest_Bottom_Model",
			"skin":0
		},
		{
			"mesh":1,
			"name":"Treasure_Chest_Top_Model",
			"skin":0
		},
		{
			"children":[
				3,
				4,
				2
			],
			"name":"\u30a2\u30fc\u30de\u30c1\u30e5\u30a2",
			"rotation":[
				0,
				0.018708478659391403,
				0,
				0.9998250007629395
			]
		}
	],
	"animations":[
		{
			"channels":[
				{
					"sampler":0,
					"target":{
						"node":2,
						"path":"translation"
					}
				},
				{
					"sampler":1,
					"target":{
						"node":2,
						"path":"rotation"
					}
				},
				{
					"sampler":2,
					"target":{
						"node":2,
						"path":"scale"
					}
				},
				{
					"sampler":3,
					"target":{
						"node":0,
						"path":"translation"
					}
				},
				{
					"sampler":4,
					"target":{
						"node":0,
						"path":"rotation"
					}
				},
				{
					"sampler":5,
					"target":{
						"node":0,
						"path":"scale"
					}
				},
				{
					"sampler":6,
					"target":{
						"node":1,
						"path":"translation"
					}
				},
				{
					"sampler":7,
					"target":{
						"node":1,
						"path":"rotation"
					}
				},
				{
					"sampler":8,
					"target":{
						"node":1,
						"path":"scale"
					}
				}
			],
			"name":"Open",
			"samplers":[
				{
					"input":13,
					"interpolation":"STEP",
					"output":14
				},
				{
					"input":13,
					"interpolation":"STEP",
					"output":15
				},
				{
					"input":13,
					"interpolation":"STEP",
					"output":16
				},
				{
					"input":13,
					"interpolation":"STEP",
					"output":17
				},
				{
					"input":13,
					"interpolation":"STEP",
					"output":18
				},
				{
					"input":13,
					"interpolation":"STEP",
					"output":19
				},
				{
					"input":13,
					"interpolation":"STEP",
					"output":20
				},
				{
					"input":21,
					"interpolation":"LINEAR",
					"output":22
				},
				{
					"input":21,
					"interpolation":"LINEAR",
					"output":23
				}
			]
		}
	],
	"materials":[
		{
			"doubleSided":true,
			"extensions":{
				"KHR_materials_specular":{
					"specularFactor":0
				},
				"KHR_materials_ior":{
					"ior":1.4500000476837158
				}
			},
			"name":"Material.001",
			"normalTexture":{
				"index":0
			},
			"pbrMetallicRoughness":{
				"baseColorTexture":{
					"index":1
				},
				"metallicFactor":0,
				"roughnessFactor":0.5
			}
		}
	],
	"meshes":[
		{
			"name":"Cube.130",
			"primitives":[
				{
					"attributes":{
						"POSITION":0,
						"NORMAL":1,
						"TEXCOORD_0":2,
						"JOINTS_0":3,
						"WEIGHTS_0":4
					},
					"indices":5,
					"material":0
				}
			]
		},
		{
			"name":"Cylinder.166",
			"primitives":[
				{
					"attributes":{
						"POSITION":7,
						"NORMAL":8,
						"TEXCOORD_0":9,
						"JOINTS_0":10,
						"WEIGHTS_0":11
					},
					"indices":12,
					"material":0
				}
			]
		}
	],
	"textures":[
		{
			"sampler":0,
			"source":0
		},
		{
			"sampler":0,
			"source":1
		}
	],
	"images":[
		{
			"mimeType":"image/png",
			"name":"NormalMap",
			"uri":"NormalMap.png"
		},
		{
			"mimeType":"image/png",
			"name":"Treasure_Chest_Basecolor",
			"uri":"Treasure_Chest_Basecolor.png"
		}
	],
	"skins":[
		{
			"inverseBindMatrices":6,
			"joints":[
				2,
				0,
				1
			],
			"name":"\u30a2\u30fc\u30de\u30c1\u30e5\u30a2"
		}
	],
	"accessors":[
		{
			"bufferView":0,
			"componentType":5126,
			"count":1061,
			"max":[
				1.0101308822631836,
				0.782359778881073,
				0.5721610188484192
			],
			"min":[
				-1.0101308822631836,
				-0.00153613300062716,
				-0.5721610188484192
			],
			"type":"VEC3"
		},
		{
			"bufferView":1,
			"componentType":5126,
			"count":1061,
			"type":"VEC3"
		},
		{
			"bufferView":2,
			"componentType":5126,
			"count":1061,
			"type":"VEC2"
		},
		{
			"bufferView":3,
			"componentType":5121,
			"count":1061,
			"type":"VEC4"
		},
		{
			"bufferView":4,
			"componentType":5126,
			"count":1061,
			"type":"VEC4"
		},
		{
			"bufferView":5,
			"componentType":5123,
			"count":2478,
			"type":"SCALAR"
		},
		{
			"bufferView":6,
			"componentType":5126,
			"count":3,
			"type":"MAT4"
		},
		{
			"bufferView":7,
			"componentType":5126,
			"count":1094,
			"max":[
				1.011535406112671,
				1.385574221611023,
				0.6304903626441956
			],
			"min":[
				-1.0115622282028198,
				0.5293565392494202,
				-0.5755444765090942
			],
			"type":"VEC3"
		},
		{
			"bufferView":8,
			"componentType":5126,
			"count":1094,
			"type":"VEC3"
		},
		{
			"bufferView":9,
			"componentType":5126,
			"count":1094,
			"type":"VEC2"
		},
		{
			"bufferView":10,
			"componentType":5121,
			"count":1094,
			"type":"VEC4"
		},
		{
			"bufferView":11,
			"componentType":5126,
			"count":1094,
			"type":"VEC4"
		},
		{
			"bufferView":12,
			"componentType":5123,
			"count":2700,
			"type":"SCALAR"
		},
		{
			"bufferView":13,
			"componentType":5126,
			"count":2,
			"max":[
				2.5
			],
			"min":[
				0.041666666666666664
			],
			"type":"SCALAR"
		},
		{
			"bufferView":14,
			"componentType":5126,
			"count":2,
			"type":"VEC3"
		},
		{
			"bufferView":15,
			"componentType":5126,
			"count":2,
			"type":"VEC4"
		},
		{
			"bufferView":16,
			"componentType":5126,
			"count":2,
			"type":"VEC3"
		},
		{
			"bufferView":17,
			"componentType":5126,
			"count":2,
			"type":"VEC3"
		},
		{
			"bufferView":18,
			"componentType":5126,
			"count":2,
			"type":"VEC4"
		},
		{
			"bufferView":19,
			"componentType":5126,
			"count":2,
			"type":"VEC3"
		},
		{
			"bufferView":20,
			"componentType":5126,
			"count":2,
			"type":"VEC3"
		},
		{
			"bufferView":21,
			"componentType":5126,
			"count":60,
			"max":[
				2.5
			],
			"min":[
				0.041666666666666664
			],
			"type":"SCALAR"
		},
		{
			"bufferView":22,
			"componentType":5126,
			"count":60,
			"type":"VEC4"
		},
		{
			"bufferView":23,
			"componentType":5126,
			"count":60,
			"type":"VEC3"
		}
	],
	"bufferViews":[
		{
			"buffer":0,
			"byteLength":12732,
			"byteOffset":0,
			"target":34962
		},
		{
			"buffer":0,
			"byteLength":12732,
			"byteOffset":12732,
			"target":34962
		},
		{
			"buffer":0,
			"byteLength":8488,
			"byteOffset":25464,
			"target":34962
		},
		{
			"buffer":0,
			"byteLength":4244,
			"byteOffset":33952,
			"target":34962
		},
		{
			"buffer":0,
			"byteLength":16976,
			"byteOffset":38196,
			"target":34962
		},
		{
			"buffer":0,
			"byteLength":4956,
			"byteOffset":55172,
			"target":34963
		},
		{
			"buffer":0,
			"byteLength":192,
			"byteOffset":60128
		},
		{
			"buffer":0,
			"byteLength":13128,
			"byteOffset":60320,
			"target":34962
		},
		{
			"buffer":0,
			"byteLength":13128,
			"byteOffset":73448,
			"target":34962
		},
		{
			"buffer":0,
			"byteLength":8752,
			"byteOffset":86576,
			"target":34962
		},
		{
			"buffer":0,
			"byteLength":4376,
			"byteOffset":95328,
			"target":34962
		},
		{
			"buffer":0,
			"byteLength":17504,
			"byteOffset":99704,
			"target":34962
		},
		{
			"buffer":0,
			"byteLength":5400,
			"byteOffset":117208,
			"target":34963
		},
		{
			"buffer":0,
			"byteLength":8,
			"byteOffset":122608
		},
		{
			"buffer":0,
			"byteLength":24,
			"byteOffset":122616
		},
		{
			"buffer":0,
			"byteLength":32,
			"byteOffset":122640
		},
		{
			"buffer":0,
			"byteLength":24,
			"byteOffset":122672
		},
		{
			"buffer":0,
			"byteLength":24,
			"byteOffset":122696
		},
		{
			"buffer":0,
			"byteLength":32,
			"byteOffset":122720
		},
		{
			"buffer":0,
			"byteLength":24,
			"byteOffset":122752
		},
		{
			"buffer":0,
			"byteLength":24,
			"byteOffset":122776
		},
		{
			"buffer":0,
			"byteLength":240,
			"byteOffset":122800
		},
		{
			"buffer":0,
			"byteLength":960,
			"byteOffset":123040
		},
		{
			"buffer":0,
			"byteLength":720,
			"byteOffset":124000
		}
	],
	"samplers":[
		{
			"magFilter":9729,
			"minFilter":9987
		}
	],
	"buffers":[
		{
			"byteLength":124720,
			"uri":"TreasureBox.bin"
		}
	]
}
