{
	"asset":{
		"generator":"Khronos glTF Blender I/O v5.1.20",
		"version":"2.0"
	},
	"scene":0,
	"scenes":[
		{
			"name":"Scene",
			"nodes":[
				0,
				1,
				2,
				3,
				4,
				5,
				6,
				7,
				8,
				9,
				10,
				11,
				12
			]
		}
	],
	"nodes":[
		{
			"mesh":0,
			"name":"\u7acb\u65b9\u4f53.001"
		},
		{
			"mesh":1,
			"name":"\u7acb\u65b9\u4f53.002"
		},
		{
			"mesh":2,
			"name":"\u7acb\u65b9\u4f53.003"
		},
		{
			"mesh":3,
			"name":"pedestal"
		},
		{
			"mesh":4,
			"name":"\u7acb\u65b9\u4f53.004"
		},
		{
			"mesh":5,
			"name":"\u7acb\u65b9\u4f53.005"
		},
		{
			"mesh":6,
			"name":"\u7acb\u65b9\u4f53.006"
		},
		{
			"mesh":7,
			"name":"\u7acb\u65b9\u4f53.008"
		},
		{
			"mesh":8,
			"name":"\u7acb\u65b9\u4f53"
		},
		{
			"mesh":9,
			"name":"\u7acb\u65b9\u4f53.009"
		},
		{
			"mesh":10,
			"name":"\u7acb\u65b9\u4f53.010"
		},
		{
			"mesh":11,
			"name":"\u7acb\u65b9\u4f53.007"
		},
		{
			"mesh":12,
			"name":"\u7acb\u65b9\u4f53.011"
		}
	],
	"materials":[
		{
			"doubleSided":true,
			"name":"\u30de\u30c6\u30ea\u30a2\u30eb.001",
			"pbrMetallicRoughness":{
				"baseColorTexture":{
					"index":0
				},
				"metallicFactor":0
			}
		},
		{
			"doubleSided":true,
			"name":"\u30de\u30c6\u30ea\u30a2\u30eb.002",
			"pbrMetallicRoughness":{
				"baseColorTexture":{
					"index":1
				},
				"metallicFactor":0
			}
		},
		{
			"alphaMode":"MASK",
			"doubleSided":true,
			"name":"\u30de\u30c6\u30ea\u30a2\u30eb.003",
			"pbrMetallicRoughness":{
				"baseColorFactor":[
					1,
					1,
					1,
					0
				],
				"baseColorTexture":{
					"index":2
				},
				"metallicFactor":0
			}
		},
		{
			"name":"stone_4",
			"normalTexture":{
				"index":3
			},
			"pbrMetallicRoughness":{
				"baseColorTexture":{
					"index":4
				},
				"metallicFactor":0,
				"metallicRoughnessTexture":{
					"index":5
				}
			}
		},
		{
			"doubleSided":true,
			"name":"\u30de\u30c6\u30ea\u30a2\u30eb.004",
			"pbrMetallicRoughness":{
				"baseColorTexture":{
					"index":6
				},
				"metallicFactor":0
			}
		},
		{
			"doubleSided":true,
			"name":"\u30de\u30c6\u30ea\u30a2\u30eb.005",
			"pbrMetallicRoughness":{
				"baseColorTexture":{
					"index":7
				},
				"metallicFactor":0
			}
		},
		{
			"doubleSided":true,
			"name":"\u30de\u30c6\u30ea\u30a2\u30eb.006",
			"pbrMetallicRoughness":{
				"baseColorTexture":{
					"index":8
				},
				"metallicFactor":0
			}
		},
		{
			"doubleSided":true,
			"name":"\u30de\u30c6\u30ea\u30a2\u30eb.008",
			"pbrMetallicRoughness":{
				"baseColorTexture":{
					"index":9
				},
				"metallicFactor":0
			}
		},
		{
			"doubleSided":true,
			"name":"\u30de\u30c6\u30ea\u30a2\u30eb.009",
			"pbrMetallicRoughness":{
				"baseColorTexture":{
					"index":10
				},
				"metallicFactor":0
			}
		},
		{
			"doubleSided":true,
			"name":"\u30de\u30c6\u30ea\u30a2\u30eb.010",
			"pbrMetallicRoughness":{
				"baseColorTexture":{
					"index":11
				},
				"metallicFactor":0
			}
		}
	],
	"meshes":[
		{
			"name":"\u7acb\u65b9\u4f53.006",
			"primitives":[
				{
					"attributes":{
						"POSITION":0,
						"NORMAL":1,
						"TEXCOORD_0":2
					},
					"indices":3,
					"material":0
				}
			]
		},
		{
			"name":"\u7acb\u65b9\u4f53.007",
			"primitives":[
				{
					"attributes":{
						"POSITION":4,
						"NORMAL":5,
						"TEXCOORD_0":6
					},
					"indices":3,
					"material":1
				}
			]
		},
		{
			"name":"\u7acb\u65b9\u4f53.008",
			"primitives":[
				{
					"attributes":{
						"POSITION":7,
						"NORMAL":8,
						"TEXCOORD_0":9
					},
					"indices":3,
					"material":2
				}
			]
		},
		{
			"name":"Cube.001",
			"primitives":[
				{
					"attributes":{
						"POSITION":10,
						"NORMAL":11,
						"TEXCOORD_0":12
					},
					"indices":13,
					"material":3
				}
			]
		},
		{
			"name":"\u7acb\u65b9\u4f53.009",
			"primitives":[
				{
					"attributes":{
						"POSITION":14,
						"NORMAL":15,
						"TEXCOORD_0":16
					},
					"indices":3,
					"material":4
				}
			]
		},
		{
			"name":"\u7acb\u65b9\u4f53.010",
			"primitives":[
				{
					"attributes":{
						"POSITION":17,
						"NORMAL":18,
						"TEXCOORD_0":19
					},
					"indices":3,
					"material":5
				}
			]
		},
		{
			"name":"\u7acb\u65b9\u4f53.011",
			"primitives":[
				{
					"attributes":{
						"POSITION":20,
						"NORMAL":21,
						"TEXCOORD_0":22
					},
					"indices":3,
					"material":6
				}
			]
		},
		{
			"name":"\u7acb\u65b9\u4f53.013",
			"primitives":[
				{
					"attributes":{
						"POSITION":23,
						"NORMAL":24,
						"TEXCOORD_0":25
					},
					"indices":3,
					"material":7
				}
			]
		},
		{
			"name":"\u7acb\u65b9\u4f53.014",
			"primitives":[
				{
					"attributes":{
						"POSITION":26,
						"NORMAL":27,
						"TEXCOORD_0":28
					},
					"indices":29
				}
			]
		},
		{
			"name":"\u7acb\u65b9\u4f53.015",
			"primitives":[
				{
					"attributes":{
						"POSITION":30,
						"NORMAL":31,
						"TEXCOORD_0":32
					},
					"indices":29
				}
			]
		},
		{
			"name":"\u7acb\u65b9\u4f53.016",
			"primitives":[
				{
					"attributes":{
						"POSITION":33,
						"NORMAL":34,
						"TEXCOORD_0":35
					},
					"indices":29
				}
			]
		},
		{
			"name":"\u7acb\u65b9\u4f53.017",
			"primitives":[
				{
					"attributes":{
						"POSITION":36,
						"NORMAL":37,
						"TEXCOORD_0":38
					},
					"indices":3,
					"material":8
				}
			]
		},
		{
			"name":"\u7acb\u65b9\u4f53.018",
			"primitives":[
				{
					"attributes":{
						"POSITION":39,
						"NORMAL":40,
						"TEXCOORD_0":41
					},
					"indices":3,
					"material":9
				}
			]
		}
	],
	"textures":[
		{
			"sampler":0,
			"source":0
		},
		{
			"sampler":0,
			"source":0
		},
		{
			"sampler":0,
			"source":0
		},
		{
			"sampler":0,
			"source":1
		},
		{
			"sampler":0,
			"source":2
		},
		{
			"sampler":0,
			"source":3
		},
		{
			"sampler":0,
			"source":0
		},
		{
			"sampler":0,
			"source":0
		},
		{
			"sampler":0,
			"source":0
		},
		{
			"sampler":0,
			"source":0
		},
		{
			"sampler":0,
			"source":0
		},
		{
			"sampler":0,
			"source":0
		}
	],
	"images":[
		{
			"mimeType":"image/png",
			"name":"stone_c",
			"uri":"stone_c.png"
		},
		{
			"mimeType":"image/png",
			"name":"stone_4_n",
			"uri":"stone_4_n.png"
		},
		{
			"mimeType":"image/png",
			"name":"stone_4_c",
			"uri":"stone_4_c.png"
		},
		{
			"mimeType":"image/png",
			"name":"stone_4_r",
			"uri":"stone_4_r.png"
		}
	],
	"accessors":[
		{
			"bufferView":0,
			"componentType":5126,
			"count":24,
			"max":[
				-4.947053909301758,
				9.714408874511719,
				0.011013031005859375
			],
			"min":[
				-6.989855766296387,
				-0.28559064865112305,
				-9.997459411621094
			],
			"type":"VEC3"
		},
		{
			"bufferView":1,
			"componentType":5126,
			"count":24,
			"type":"VEC3"
		},
		{
			"bufferView":2,
			"componentType":5126,
			"count":24,
			"type":"VEC2"
		},
		{
			"bufferView":3,
			"componentType":5123,
			"count":36,
			"type":"SCALAR"
		},
		{
			"bufferView":4,
			"componentType":5126,
			"count":24,
			"max":[
				7.281590461730957,
				9.714408874511719,
				0.05408763885498047
			],
			"min":[
				5.238788604736328,
				-0.28559064865112305,
				-9.954385757446289
			],
			"type":"VEC3"
		},
		{
			"bufferView":5,
			"componentType":5126,
			"count":24,
			"type":"VEC3"
		},
		{
			"bufferView":6,
			"componentType":5126,
			"count":24,
			"type":"VEC2"
		},
		{
			"bufferView":7,
			"componentType":5126,
			"count":24,
			"max":[
				5.8621721267700195,
				9.731637001037598,
				-9.668609619140625
			],
			"min":[
				-4.1850361824035645,
				-0.9223854541778564,
				-11.919876098632812
			],
			"type":"VEC3"
		},
		{
			"bufferView":8,
			"componentType":5126,
			"count":24,
			"type":"VEC3"
		},
		{
			"bufferView":9,
			"componentType":5126,
			"count":24,
			"type":"VEC2"
		},
		{
			"bufferView":10,
			"componentType":5126,
			"count":220,
			"max":[
				5.5940680503845215,
				-0.05332040786743164,
				0.15029215812683105
			],
			"min":[
				-5.5940680503845215,
				-3.66188383102417,
				-13.839948654174805
			],
			"type":"VEC3"
		},
		{
			"bufferView":11,
			"componentType":5126,
			"count":220,
			"type":"VEC3"
		},
		{
			"bufferView":12,
			"componentType":5126,
			"count":220,
			"type":"VEC2"
		},
		{
			"bufferView":13,
			"componentType":5123,
			"count":942,
			"type":"SCALAR"
		},
		{
			"bufferView":14,
			"componentType":5126,
			"count":24,
			"max":[
				5.735758304595947,
				9.731816291809082,
				-6.785333633422852
			],
			"min":[
				3.6929564476013184,
				-0.2681836485862732,
				-16.793806076049805
			],
			"type":"VEC3"
		},
		{
			"bufferView":15,
			"componentType":5126,
			"count":24,
			"type":"VEC3"
		},
		{
			"bufferView":16,
			"componentType":5126,
			"count":24,
			"type":"VEC2"
		},
		{
			"bufferView":17,
			"componentType":5126,
			"count":24,
			"max":[
				-3.1384425163269043,
				9.714408874511719,
				-7.92081356048584
			],
			"min":[
				-5.181244373321533,
				-0.28559064865112305,
				-17.92928695678711
			],
			"type":"VEC3"
		},
		{
			"bufferView":18,
			"componentType":5126,
			"count":24,
			"type":"VEC3"
		},
		{
			"bufferView":19,
			"componentType":5126,
			"count":24,
			"type":"VEC2"
		},
		{
			"bufferView":20,
			"componentType":5126,
			"count":24,
			"max":[
				5.885555744171143,
				-0.19717025756835938,
				-7.621161460876465
			],
			"min":[
				3.8427538871765137,
				-10.19717025756836,
				-17.629634857177734
			],
			"type":"VEC3"
		},
		{
			"bufferView":21,
			"componentType":5126,
			"count":24,
			"type":"VEC3"
		},
		{
			"bufferView":22,
			"componentType":5126,
			"count":24,
			"type":"VEC2"
		},
		{
			"bufferView":23,
			"componentType":5126,
			"count":24,
			"max":[
				-3.1384425163269043,
				-0.2975187301635742,
				-7.92081356048584
			],
			"min":[
				-5.181244373321533,
				-10.297517776489258,
				-17.92928695678711
			],
			"type":"VEC3"
		},
		{
			"bufferView":24,
			"componentType":5126,
			"count":24,
			"type":"VEC3"
		},
		{
			"bufferView":25,
			"componentType":5126,
			"count":24,
			"type":"VEC2"
		},
		{
			"bufferView":26,
			"componentType":5126,
			"count":24,
			"max":[
				3.5792887210845947,
				-0.9621591567993164,
				-7.718038558959961
			],
			"min":[
				-3.424462080001831,
				-2.9621591567993164,
				-9.718038558959961
			],
			"type":"VEC3"
		},
		{
			"bufferView":27,
			"componentType":5126,
			"count":24,
			"type":"VEC3"
		},
		{
			"bufferView":28,
			"componentType":5126,
			"count":24,
			"type":"VEC2"
		},
		{
			"bufferView":29,
			"componentType":5123,
			"count":36,
			"type":"SCALAR"
		},
		{
			"bufferView":30,
			"componentType":5126,
			"count":24,
			"max":[
				3.5792887210845947,
				-1.9161789417266846,
				-9.649709701538086
			],
			"min":[
				-3.424462080001831,
				-3.9161789417266846,
				-11.649709701538086
			],
			"type":"VEC3"
		},
		{
			"bufferView":31,
			"componentType":5126,
			"count":24,
			"type":"VEC3"
		},
		{
			"bufferView":32,
			"componentType":5126,
			"count":24,
			"type":"VEC2"
		},
		{
			"bufferView":33,
			"componentType":5126,
			"count":24,
			"max":[
				3.5792887210845947,
				-2.8159432411193848,
				-11.78407096862793
			],
			"min":[
				-3.424462080001831,
				-4.815943241119385,
				-13.78407096862793
			],
			"type":"VEC3"
		},
		{
			"bufferView":34,
			"componentType":5126,
			"count":24,
			"type":"VEC3"
		},
		{
			"bufferView":35,
			"componentType":5126,
			"count":24,
			"type":"VEC2"
		},
		{
			"bufferView":36,
			"componentType":5126,
			"count":24,
			"max":[
				5.8621721267700195,
				9.731637001037598,
				-15.798604965209961
			],
			"min":[
				-4.1850361824035645,
				-0.9223854541778564,
				-18.04987144470215
			],
			"type":"VEC3"
		},
		{
			"bufferView":37,
			"componentType":5126,
			"count":24,
			"type":"VEC3"
		},
		{
			"bufferView":38,
			"componentType":5126,
			"count":24,
			"type":"VEC2"
		},
		{
			"bufferView":39,
			"componentType":5126,
			"count":24,
			"max":[
				5.8621721267700195,
				0.42937278747558594,
				-15.798604965209961
			],
			"min":[
				-4.1850361824035645,
				-10.224649429321289,
				-18.04987144470215
			],
			"type":"VEC3"
		},
		{
			"bufferView":40,
			"componentType":5126,
			"count":24,
			"type":"VEC3"
		},
		{
			"bufferView":41,
			"componentType":5126,
			"count":24,
			"type":"VEC2"
		}
	],
	"bufferViews":[
		{
			"buffer":0,
			"byteLength":288,
			"byteOffset":0,
			"target":34962
		},
		{
			"buffer":0,
			"byteLength":288,
			"byteOffset":288,
			"target":34962
		},
		{
			"buffer":0,
			"byteLength":192,
			"byteOffset":576,
			"target":34962
		},
		{
			"buffer":0,
			"byteLength":72,
			"byteOffset":768,
			"target":34963
		},
		{
			"buffer":0,
			"byteLength":288,
			"byteOffset":840,
			"target":34962
		},
		{
			"buffer":0,
			"byteLength":288,
			"byteOffset":1128,
			"target":34962
		},
		{
			"buffer":0,
			"byteLength":192,
			"byteOffset":1416,
			"target":34962
		},
		{
			"buffer":0,
			"byteLength":288,
			"byteOffset":1608,
			"target":34962
		},
		{
			"buffer":0,
			"byteLength":288,
			"byteOffset":1896,
			"target":34962
		},
		{
			"buffer":0,
			"byteLength":192,
			"byteOffset":2184,
			"target":34962
		},
		{
			"buffer":0,
			"byteLength":2640,
			"byteOffset":2376,
			"target":34962
		},
		{
			"buffer":0,
			"byteLength":2640,
			"byteOffset":5016,
			"target":34962
		},
		{
			"buffer":0,
			"byteLength":1760,
			"byteOffset":7656,
			"target":34962
		},
		{
			"buffer":0,
			"byteLength":1884,
			"byteOffset":9416,
			"target":34963
		},
		{
			"buffer":0,
			"byteLength":288,
			"byteOffset":11300,
			"target":34962
		},
		{
			"buffer":0,
			"byteLength":288,
			"byteOffset":11588,
			"target":34962
		},
		{
			"buffer":0,
			"byteLength":192,
			"byteOffset":11876,
			"target":34962
		},
		{
			"buffer":0,
			"byteLength":288,
			"byteOffset":12068,
			"target":34962
		},
		{
			"buffer":0,
			"byteLength":288,
			"byteOffset":12356,
			"target":34962
		},
		{
			"buffer":0,
			"byteLength":192,
			"byteOffset":12644,
			"target":34962
		},
		{
			"buffer":0,
			"byteLength":288,
			"byteOffset":12836,
			"target":34962
		},
		{
			"buffer":0,
			"byteLength":288,
			"byteOffset":13124,
			"target":34962
		},
		{
			"buffer":0,
			"byteLength":192,
			"byteOffset":13412,
			"target":34962
		},
		{
			"buffer":0,
			"byteLength":288,
			"byteOffset":13604,
			"target":34962
		},
		{
			"buffer":0,
			"byteLength":288,
			"byteOffset":13892,
			"target":34962
		},
		{
			"buffer":0,
			"byteLength":192,
			"byteOffset":14180,
			"target":34962
		},
		{
			"buffer":0,
			"byteLength":288,
			"byteOffset":14372,
			"target":34962
		},
		{
			"buffer":0,
			"byteLength":288,
			"byteOffset":14660,
			"target":34962
		},
		{
			"buffer":0,
			"byteLength":192,
			"byteOffset":14948,
			"target":34962
		},
		{
			"buffer":0,
			"byteLength":72,
			"byteOffset":15140,
			"target":34963
		},
		{
			"buffer":0,
			"byteLength":288,
			"byteOffset":15212,
			"target":34962
		},
		{
			"buffer":0,
			"byteLength":288,
			"byteOffset":15500,
			"target":34962
		},
		{
			"buffer":0,
			"byteLength":192,
			"byteOffset":15788,
			"target":34962
		},
		{
			"buffer":0,
			"byteLength":288,
			"byteOffset":15980,
			"target":34962
		},
		{
			"buffer":0,
			"byteLength":288,
			"byteOffset":16268,
			"target":34962
		},
		{
			"buffer":0,
			"byteLength":192,
			"byteOffset":16556,
			"target":34962
		},
		{
			"buffer":0,
			"byteLength":288,
			"byteOffset":16748,
			"target":34962
		},
		{
			"buffer":0,
			"byteLength":288,
			"byteOffset":17036,
			"target":34962
		},
		{
			"buffer":0,
			"byteLength":192,
			"byteOffset":17324,
			"target":34962
		},
		{
			"buffer":0,
			"byteLength":288,
			"byteOffset":17516,
			"target":34962
		},
		{
			"buffer":0,
			"byteLength":288,
			"byteOffset":17804,
			"target":34962
		},
		{
			"buffer":0,
			"byteLength":192,
			"byteOffset":18092,
			"target":34962
		}
	],
	"samplers":[
		{
			"magFilter":9729,
			"minFilter":9987
		}
	],
	"buffers":[
		{
			"byteLength":18284,
			"uri":"Stairs.bin"
		}
	]
}
