{
	"asset":{
		"generator":"Khronos glTF Blender I/O v5.1.19",
		"version":"2.0"
	},
	"scene":0,
	"scenes":[
		{
			"name":"Scene",
			"nodes":[
				5
			]
		}
	],
	"nodes":[
		{
			"name":"WingL",
			"rotation":[
				-3.5527119847346064e-15,
				7.105427357601002e-15,
				-4.23516574601346e-22,
				1
			],
			"translation":[
				-0.344288170337677,
				0.28603556752204895,
				-8.028510478652606e-08
			]
		},
		{
			"name":"RWing",
			"rotation":[
				-3.5527119847346064e-15,
				7.105427357601002e-15,
				-4.23516574601346e-22,
				1
			],
			"translation":[
				0.35092273354530334,
				0.2794009745121002,
				8.546607688231234e-08
			]
		},
		{
			"name":"Tail",
			"rotation":[
				-0.6113781929016113,
				0.3552700877189636,
				0.6113778948783875,
				0.3552702069282532
			],
			"scale":[
				0.9999999403953552,
				0.9999999403953552,
				1
			],
			"translation":[
				-0.21451665461063385,
				-0.24331194162368774,
				-6.797161233862425e-08
			]
		},
		{
			"children":[
				0,
				1,
				2
			],
			"name":"Root",
			"rotation":[
				-2.980232594040899e-08,
				1.1920927533992653e-07,
				0,
				1
			],
			"scale":[
				1,
				0.9999999403953552,
				0.9999999403953552
			]
		},
		{
			"mesh":0,
			"name":"Ghost",
			"skin":0
		},
		{
			"children":[
				4,
				3
			],
			"name":"Armature",
			"translation":[
				-0.0862019881606102,
				0.4329507350921631,
				-0.04402832314372063
			]
		}
	],
	"materials":[
		{
			"doubleSided":true,
			"name":"Material.001",
			"pbrMetallicRoughness":{
				"baseColorTexture":{
					"index":0
				},
				"metallicFactor":0,
				"roughnessFactor":0.5
			}
		}
	],
	"meshes":[
		{
			"name":"Icosphere",
			"primitives":[
				{
					"attributes":{
						"POSITION":0,
						"NORMAL":1,
						"TEXCOORD_0":2,
						"JOINTS_0":3,
						"WEIGHTS_0":4
					},
					"indices":5,
					"material":0
				}
			]
		}
	],
	"textures":[
		{
			"sampler":0,
			"source":0
		}
	],
	"images":[
		{
			"mimeType":"image/png",
			"name":"Ghost_D",
			"uri":"Ghost_D.png"
		}
	],
	"skins":[
		{
			"inverseBindMatrices":6,
			"joints":[
				3,
				0,
				1,
				2
			],
			"name":"Armature"
		}
	],
	"accessors":[
		{
			"bufferView":0,
			"componentType":5126,
			"count":214,
			"max":[
				0.638225793838501,
				1.0551339387893677,
				0.21526972949504852
			],
			"min":[
				-0.8621786236763,
				0.03797179460525513,
				-0.2775355577468872
			],
			"type":"VEC3"
		},
		{
			"bufferView":1,
			"componentType":5126,
			"count":214,
			"type":"VEC3"
		},
		{
			"bufferView":2,
			"componentType":5126,
			"count":214,
			"type":"VEC2"
		},
		{
			"bufferView":3,
			"componentType":5121,
			"count":214,
			"type":"VEC4"
		},
		{
			"bufferView":4,
			"componentType":5126,
			"count":214,
			"type":"VEC4"
		},
		{
			"bufferView":5,
			"componentType":5123,
			"count":876,
			"type":"SCALAR"
		},
		{
			"bufferView":6,
			"componentType":5126,
			"count":4,
			"type":"MAT4"
		}
	],
	"bufferViews":[
		{
			"buffer":0,
			"byteLength":2568,
			"byteOffset":0,
			"target":34962
		},
		{
			"buffer":0,
			"byteLength":2568,
			"byteOffset":2568,
			"target":34962
		},
		{
			"buffer":0,
			"byteLength":1712,
			"byteOffset":5136,
			"target":34962
		},
		{
			"buffer":0,
			"byteLength":856,
			"byteOffset":6848,
			"target":34962
		},
		{
			"buffer":0,
			"byteLength":3424,
			"byteOffset":7704,
			"target":34962
		},
		{
			"buffer":0,
			"byteLength":1752,
			"byteOffset":11128,
			"target":34963
		},
		{
			"buffer":0,
			"byteLength":256,
			"byteOffset":12880
		}
	],
	"samplers":[
		{
			"magFilter":9729,
			"minFilter":9987
		}
	],
	"buffers":[
		{
			"byteLength":13136,
			"uri":"Player.bin"
		}
	]
}
